<?xml version="1.0" encoding="UTF-8"?>
<svg version="1.1" xmlns="http://www.w3.org/2000/svg" width="2048" height="2048">
<path d="M0 0 C675.84 0 1351.68 0 2048 0 C2048 675.84 2048 1351.68 2048 2048 C1372.16 2048 696.32 2048 0 2048 C0 1372.16 0 696.32 0 0 Z " fill="#FDFDFD" transform="translate(0,0)"/>
<path d="M0 0 C7.52189434 3.22609464 12.90140626 10.81068991 18.12109375 16.90234375 C20.32627296 19.364259 22.64886677 21.6772364 25 24 C28.58558699 27.54232199 31.94891662 31.17555661 35.22265625 35.00390625 C37.23268777 37.26132626 39.34832953 39.37735713 41.5 41.5 C44.24500542 44.20803565 46.8727091 46.94169249 49.375 49.875 C52.70314135 53.76041153 56.30735697 57.33697227 59.94604492 60.92651367 C63.24009366 64.1933248 66.31466808 67.57876379 69.32421875 71.10546875 C71.76775829 73.86797849 74.40817912 76.41726658 77.03515625 79.00390625 C78.92230744 80.92107177 80.68685375 82.89575322 82.4375 84.9375 C85.00665271 87.92801716 87.69317256 90.73116684 90.5 93.5 C93.9288279 96.88241399 97.12048518 100.38070442 100.25390625 104.03515625 C102.09615675 106.10820324 104.02401662 108.05435802 106 110 C108.59982183 112.55990134 111.06268398 115.1677954 113.4375 117.9375 C116.00665271 120.92801716 118.69317256 123.73116684 121.5 126.5 C124.2244154 129.1877846 126.83260312 131.89816863 129.3125 134.8125 C132.37500161 138.38898789 135.65279959 141.69390105 139 145 C142.92065248 148.87256844 146.65404194 152.80792248 150.2265625 157.0078125 C153.19206046 160.33909876 156.41029107 163.41742824 159.58203125 166.55078125 C162.29675469 169.30058997 164.81767727 172.17063581 167.328125 175.10546875 C170.07253502 178.21537263 173.02793506 181.10923774 176 184 C179.53519372 182.49345057 181.78641647 180.44948922 184.47827148 177.72859192 C185.81569901 176.38444969 185.81569901 176.38444969 187.18014526 175.01315308 C188.16053519 174.01771181 189.1408488 173.02219537 190.12109375 172.02661133 C191.15904664 170.97990708 192.19748048 169.93367958 193.23635864 168.88789368 C195.470767 166.6370064 197.70217271 164.38319854 199.931427 162.1272068 C203.45461166 158.56266988 206.98701271 155.00736505 210.52124023 151.45378113 C220.56910684 141.34832028 230.60685668 131.23288392 240.62988281 121.1027832 C246.16698871 115.50668473 251.71294175 109.91951313 257.26883411 104.34206408 C260.78700293 100.80922261 264.2937865 97.26556494 267.79270935 93.71366656 C269.96793947 91.51077542 272.1534953 89.31836495 274.34218979 87.12885857 C275.35761972 86.1088448 276.36872776 85.0845082 277.37521744 84.05567169 C278.74583343 82.65585931 280.1333398 81.27264372 281.52172852 79.89045715 C282.29452652 79.11045255 283.06732452 78.33044794 283.86354065 77.52680683 C286 76 286 76 287.96067882 76.25462157 C291.3320637 77.48687355 293.53811254 80.14214556 296.00787354 82.65383911 C296.60592891 83.25003677 297.20398427 83.84623443 297.82016253 84.46049869 C299.82773888 86.46546984 301.82438499 88.48098544 303.82128906 90.49658203 C305.2565046 91.9342803 306.69238835 93.37131177 308.12889099 94.807724 C311.22442074 97.9059627 314.31512381 101.00891097 317.40219879 104.11557388 C322.28688527 109.03124875 327.18189079 113.93655959 332.07830811 118.84054565 C339.82700517 126.60374678 347.56845288 134.37413272 355.30698276 142.14746749 C369.1497111 156.05200538 383.00448267 169.94453788 396.86212897 183.83420646 C401.72344359 188.70732821 406.58155695 193.58361271 411.43699598 198.46258855 C414.46559537 201.50506631 417.49622377 204.5455173 420.52729988 207.58552742 C421.9277799 208.99105483 423.32737766 210.39746201 424.72600365 211.80483437 C433.85918377 221.04664392 433.85918377 221.04664392 443.5095787 229.73898125 C445.63266835 231.53528936 447.60054285 233.46809709 449.5625 235.4375 C450.58537109 236.45650391 450.58537109 236.45650391 451.62890625 237.49609375 C453.54381781 239.5182656 455.34904515 241.57239529 457.15451145 243.68971252 C460.82998947 247.89888632 464.78846845 251.68989362 468.89891052 255.46850586 C477.66445304 263.6266844 486.16181627 272.02656706 494.61743164 280.50390625 C496.19605852 282.08281618 497.77490757 283.66150402 499.35395813 285.23999023 C503.58232967 289.4680784 507.80764155 293.69921163 512.03235173 297.93095779 C516.4694107 302.37432787 520.90935929 306.81480876 525.34898376 311.25561523 C532.78155668 318.69092912 540.21238848 326.1279792 547.6418457 333.56640625 C555.28486032 341.21863877 562.92895354 348.86979124 570.57446289 356.51953125 C571.04791588 356.99324697 571.52136888 357.46696268 572.00916893 357.95503342 C574.38500221 360.332172 576.76085632 362.70928975 579.13672078 365.08639717 C598.76099642 384.72108587 618.38169817 404.3593426 638 424 C636.40213321 427.95287611 633.66446024 430.6125614 630.6882019 433.55903625 C629.86718607 434.38367372 629.86718607 434.38367372 629.02958405 435.22497052 C627.19355829 437.06663359 625.35046867 438.90105912 623.50732422 440.7355957 C622.18955447 442.05443838 620.8722178 443.37371389 619.55528259 444.69338989 C615.97484061 448.27868374 612.38817114 451.85768791 608.80023718 455.43548226 C605.04372578 459.18320994 601.2924876 462.93620891 597.54055786 466.68852234 C591.23389355 472.99424958 584.92336649 479.29609005 578.61035156 485.59545898 C571.3226223 492.86749295 564.04010195 500.14470945 556.76058376 507.42496234 C549.00270044 515.18352279 541.24100651 522.93826252 533.47820139 530.69189811 C531.24699731 532.92097603 529.01649996 535.15075904 526.78615952 537.38070107 C523.27061436 540.89523688 519.75251245 544.40719405 516.23246956 547.91722488 C514.94492567 549.20186324 513.65820888 550.48733122 512.37240791 551.77371407 C510.60847665 553.53814118 508.84147198 555.29943489 507.07369995 557.06001282 C506.5730889 557.56217247 506.07247785 558.06433212 505.55669677 558.58170873 C502.84437697 561.27599437 500.06037121 563.83788477 497.16456032 566.33459854 C492.67703182 570.22739308 488.48469199 574.37920724 484.29333496 578.58641052 C483.03351484 579.84494901 483.03351484 579.84494901 481.74824381 581.12891251 C479.4385857 583.43721689 477.13116498 585.74773001 474.82470512 588.05922925 C472.32903049 590.55924765 469.83044034 593.05634934 467.33221436 595.55381775 C463.0112374 599.87427195 458.69208602 604.19654414 454.37419128 608.52007866 C448.13134107 614.77107757 441.88571081 621.0192928 435.63941222 627.26684571 C425.50374304 637.40470012 415.37030613 647.54478277 405.23828125 657.6862793 C395.39961354 667.53413482 385.55988954 677.38093295 375.71875 687.22631836 C375.11150469 687.83382639 374.50425938 688.44133443 373.8786127 689.06725179 C370.83204447 692.11512512 367.78545554 695.16297774 364.73885632 698.21082008 C339.48936024 723.4706723 314.2434904 748.73414605 289 774 C280.32285084 769.80059176 273.72500284 761.86546831 267.00390625 755.11743164 C266.0275843 754.14082697 265.05104082 753.16444372 264.07429504 752.18826294 C261.44657671 749.56082929 258.82193395 746.9303433 256.19786835 744.29926229 C253.44638234 741.54148767 250.69202824 738.78658051 247.93798828 736.03135681 C242.7336369 730.82390826 237.53183797 725.61391787 232.33097076 720.4029898 C226.40543996 714.46624752 220.47703953 708.53237434 214.5484066 702.59873021 C202.36242798 690.40232378 190.18002457 678.20235244 178 666 C175.04983747 667.4124643 173.07383162 668.7151286 170.85546875 671.1328125 C170.26894531 671.76574219 169.68242188 672.39867187 169.078125 673.05078125 C168.45421875 673.73527344 167.8303125 674.41976562 167.1875 675.125 C165.83739072 676.58607717 164.48712601 678.04701073 163.13671875 679.5078125 C162.44884277 680.25579102 161.7609668 681.00376953 161.05224609 681.77441406 C157.89013616 685.20360681 154.69455857 688.60106722 151.5 692 C150.24981564 693.33316047 148.9998162 694.66649438 147.75 696 C140.24999999 704.00000001 140.24999999 704.00000001 138.37475586 706.00024414 C137.125548 707.33274337 135.87636178 708.66526288 134.62719727 709.99780273 C131.49025515 713.34406511 128.35293042 716.68996719 125.21484375 720.03515625 C119.13559389 726.51633998 113.06106032 733.00179883 107 739.5 C96.35708448 750.90964871 85.67779936 762.28495357 74.98095703 773.64404297 C70.48103454 778.42350444 65.98817331 783.20950532 61.5 788 C53.00846797 797.06291649 44.49403082 806.10421184 35.97949219 815.14550781 C33.96535391 817.28437261 31.95139708 819.4234081 29.9375 821.5625 C29.28297852 822.25754639 28.62845703 822.95259277 27.95410156 823.66870117 C24.57610771 827.25729834 21.20258903 830.84997654 17.8359375 834.44921875 C17.16054932 835.17101318 16.48516113 835.89280762 15.78930664 836.63647461 C14.51168538 838.00245797 13.23477965 839.36911109 11.95874023 840.73657227 C8.69860346 844.22207877 5.39709779 847.64768504 2 851 C-2.25209209 849.40040345 -4.81463557 846.1831683 -7.75 842.875 C-8.82027657 841.6901962 -9.89189121 840.50659975 -10.96484375 839.32421875 C-11.4841748 838.75106934 -12.00350586 838.17791992 -12.53857422 837.58740234 C-14.40519913 835.55987225 -16.34479229 833.61670071 -18.3125 831.6875 C-21.45781044 828.59407097 -24.34460273 825.34446227 -27.21875 822 C-29.0742521 819.91662922 -31.01223101 817.95718793 -33 816 C-35.55869259 813.48044611 -37.98170611 810.91881218 -40.3125 808.1875 C-43.22250451 804.79804395 -46.32159942 801.63548547 -49.5 798.5 C-53.21846961 794.83153502 -56.73668187 791.0685078 -60.125 787.09375 C-62.93531289 783.95556727 -65.95118637 781.0279331 -68.94873047 778.07080078 C-72.22020631 774.82635263 -75.26963506 771.46382493 -78.2578125 767.9609375 C-80.97166122 764.90633647 -83.90863752 762.08338457 -86.81640625 759.21484375 C-88.77974671 757.22340539 -90.62079669 755.18697422 -92.4375 753.0625 C-95.15619248 749.8896408 -98.02751675 746.93661618 -101 744 C-104.58558699 740.45767801 -107.94891662 736.82444339 -111.22265625 732.99609375 C-113.94977223 729.93333273 -116.89404637 727.09776507 -119.8125 724.21875 C-122.40196881 721.59228878 -124.78836964 718.83023542 -127.1875 716.03125 C-129.2109288 713.76361428 -131.33653347 711.6342305 -133.5 709.5 C-136.9071879 706.13885518 -140.07458174 702.66298797 -143.1875 699.03125 C-145.2109288 696.76361428 -147.33653347 694.6342305 -149.5 692.5 C-152.9071879 689.13885518 -156.07458174 685.66298797 -159.1875 682.03125 C-161.92654841 678.96162678 -164.8768364 676.11471392 -167.8046875 673.2265625 C-170.44006743 670.55366826 -172.87766489 667.74631697 -175.3203125 664.8984375 C-176.98204576 663.02029247 -178.71125525 661.25694484 -180.5 659.5 C-182.91332717 657.12957643 -185.17271853 654.69263692 -187.375 652.125 C-189.96634205 649.1153247 -192.67254783 646.28911384 -195.5 643.5 C-198.26560408 640.77170593 -200.91287031 638.01483166 -203.4375 635.0625 C-206.94229928 630.97221221 -210.75198614 627.2329093 -214.58203125 623.44921875 C-217.30649918 620.6895396 -219.83547376 617.80819343 -222.35546875 614.86328125 C-224.00398752 612.99548207 -225.72303581 611.24544376 -227.5 609.5 C-229.89277491 607.14966899 -232.13191112 604.735776 -234.3125 602.1875 C-237.07618029 598.97666245 -239.98619596 595.97732835 -243 593 C-246.58558699 589.45767801 -249.94891662 585.82444339 -253.22265625 581.99609375 C-255.94855159 578.9347036 -258.89141358 576.10034836 -261.80859375 573.22265625 C-264.42101068 570.5729856 -266.83302621 567.78827197 -269.25390625 564.96484375 C-271.7235936 562.18575486 -274.37903322 559.61139504 -277.02734375 557.00390625 C-279.57337829 554.41753849 -281.92021557 551.6846472 -284.28515625 548.93359375 C-285.96004299 547.04505403 -287.69947587 545.26844352 -289.5 543.5 C-291.851726 541.18980559 -294.05039265 538.82217812 -296.1875 536.3125 C-299.29618225 532.69856917 -302.61139963 529.34742218 -306 526 C-309.82709364 522.2143466 -313.49876564 518.38472867 -316.99609375 514.2890625 C-322.16768532 508.38155244 -327.62398452 502.72085637 -333 497 C-333.64179199 496.31695801 -334.28358398 495.63391602 -334.94482422 494.93017578 C-338.25902598 491.40434128 -341.5757568 487.88090545 -344.89453125 484.359375 C-347.70826349 481.37337344 -350.51769797 478.38340532 -353.32421875 475.390625 C-354.03400879 474.63442871 -354.74379883 473.87823242 -355.47509766 473.09912109 C-356.82070674 471.66537855 -358.16549633 470.23086622 -359.50927734 468.79541016 C-362.46684625 465.64628285 -365.44889417 462.53913858 -368.52734375 459.5078125 C-371.57986798 456.47969476 -374.40148743 453.29776024 -377.20996094 450.04394531 C-380.87486938 445.8591917 -384.74260398 441.85945363 -388.5703125 437.82421875 C-392.19253476 433.98674148 -395.67064579 430.09472299 -399 426 C-397.34324716 421.65234288 -394.09008562 418.90564614 -390.8125 415.75 C-386.59711029 411.6674172 -382.61876874 407.48322955 -378.78393555 403.04003906 C-375.78165449 399.60674763 -372.63737586 396.30945831 -369.5 393 C-368.08579329 391.50274037 -366.67173428 390.00534121 -365.2578125 388.5078125 C-364.54786133 387.75661133 -363.83791016 387.00541016 -363.10644531 386.23144531 C-359.85469466 382.78673032 -356.61410479 379.33160271 -353.375 375.875 C-352.7574585 375.2162085 -352.13991699 374.55741699 -351.50366211 373.87866211 C-347.35018204 369.44591982 -343.20501981 365.00548307 -339.0625 360.5625 C-333.41020702 354.50070171 -327.73577564 348.46006038 -322.05126953 342.4284668 C-318.66024103 338.82966477 -315.2740483 335.22655438 -311.8984375 331.61328125 C-311.23320068 330.90163818 -310.56796387 330.18999512 -309.88256836 329.45678711 C-308.63236489 328.1187069 -307.38309927 326.77974948 -306.13500977 325.43969727 C-303.30911945 322.41630919 -300.45283495 319.44285035 -297.50390625 316.5390625 C-294.44098618 313.50043779 -291.60906398 310.30903566 -288.79052734 307.04443359 C-285.72586124 303.54518162 -282.51384537 300.18629786 -279.3125 296.8125 C-274.51265003 291.73446185 -269.72718773 286.64578339 -265 281.5 C-258.40627503 274.32878834 -251.7168837 267.24830974 -245.03466797 260.15966797 C-241.7691307 256.69351214 -238.50832145 253.22293891 -235.25 249.75 C-234.32405029 248.76326294 -234.32405029 248.76326294 -233.37939453 247.7565918 C-228.91480476 242.99226555 -224.49174381 238.19103265 -220.07641602 233.38110352 C-216.73819681 229.75980058 -213.29571796 226.26929959 -209.78515625 222.81640625 C-207.98081164 220.98047574 -206.29968611 219.07944806 -204.625 217.125 C-201.88378551 213.93317491 -198.99314112 210.95697023 -196 208 C-193.04816975 205.08373397 -190.19611141 202.15394165 -187.5 199 C-184.01547893 194.92376781 -180.21918019 191.20449127 -176.40625 187.4375 C-174.34550655 185.34999365 -172.40484374 183.22830777 -170.5 181 C-167.80388859 177.84605835 -164.95183025 174.91626603 -162 172 C-159.06881809 169.10408042 -156.23596826 166.19757429 -153.5625 163.0625 C-150.25653882 159.19382202 -146.66855322 155.63935695 -143.04931641 152.06884766 C-139.80015827 148.84649591 -136.77563666 145.50668184 -133.80859375 142.02734375 C-130.82349884 138.68120064 -127.59117232 135.58406048 -124.40234375 132.43359375 C-122.36285627 130.36757635 -120.444922 128.26994451 -118.5625 126.0625 C-115.69827626 122.71074881 -112.63665531 119.59443922 -109.5 116.5 C-106.40508128 113.44662382 -103.38065703 110.37676292 -100.5625 107.0625 C-97.06423799 102.95731061 -93.24316838 99.21562795 -89.40917969 95.42871094 C-86.00913777 92.05431359 -82.81236685 88.57511725 -79.70703125 84.92578125 C-77.00778615 81.88063747 -74.07938937 79.07157299 -71.18359375 76.21484375 C-69.22025329 74.22340539 -67.37920331 72.18697422 -65.5625 70.0625 C-62.05650315 65.97081459 -58.24538109 62.23033117 -54.4140625 58.4453125 C-51.71248706 55.70876521 -49.20921265 52.85020634 -46.7109375 49.9296875 C-44.251832 47.15617582 -41.60112779 44.59191511 -38.9609375 41.9921875 C-37.09521194 40.09672926 -35.35340745 38.14553265 -33.625 36.125 C-30.88378551 32.93317491 -27.99314112 29.95697023 -25 27 C-21.4412371 23.48411376 -18.10526991 19.88045904 -14.859375 16.078125 C-11.80527851 12.66472304 -8.51251391 9.49356946 -5.234375 6.296875 C-3.28200692 4.28989522 -1.6126187 2.2827979 0 0 Z " fill="#2C704B" transform="translate(905,409)"/>
<path d="M0 0 C7.52189434 3.22609464 12.90140626 10.81068991 18.12109375 16.90234375 C20.32627296 19.364259 22.64886677 21.6772364 25 24 C28.58558699 27.54232199 31.94891662 31.17555661 35.22265625 35.00390625 C37.23268777 37.26132626 39.34832953 39.37735713 41.5 41.5 C44.24500542 44.20803565 46.8727091 46.94169249 49.375 49.875 C52.70314135 53.76041153 56.30735697 57.33697227 59.94604492 60.92651367 C63.24009366 64.1933248 66.31466808 67.57876379 69.32421875 71.10546875 C71.76775829 73.86797849 74.40817912 76.41726658 77.03515625 79.00390625 C78.92230744 80.92107177 80.68685375 82.89575322 82.4375 84.9375 C85.00665271 87.92801716 87.69317256 90.73116684 90.5 93.5 C93.9288279 96.88241399 97.12048518 100.38070442 100.25390625 104.03515625 C102.09615675 106.10820324 104.02401662 108.05435802 106 110 C108.59982183 112.55990134 111.06268398 115.1677954 113.4375 117.9375 C116.00665271 120.92801716 118.69317256 123.73116684 121.5 126.5 C124.2244154 129.1877846 126.83260312 131.89816863 129.3125 134.8125 C132.37500161 138.38898789 135.65279959 141.69390105 139 145 C142.92065248 148.87256844 146.65404194 152.80792248 150.2265625 157.0078125 C153.19206046 160.33909876 156.41029107 163.41742824 159.58203125 166.55078125 C162.29948099 169.30335151 164.82635904 172.17016163 167.32421875 175.12109375 C169.64545835 177.72369573 172.20620682 180.0451664 174.8125 182.359375 C176 184 176 184 175.82910156 185.8293457 C174.73119837 188.70374421 173.11792866 190.2204998 170.921875 192.37109375 C169.67470703 193.60375977 169.67470703 193.60375977 168.40234375 194.86132812 C167.08943359 196.1365332 167.08943359 196.1365332 165.75 197.4375 C164.89019531 198.28376953 164.03039063 199.13003906 163.14453125 200.00195312 C161.53172151 201.58866964 159.91584437 203.1722788 158.29589844 204.75170898 C154.11863262 208.84235561 150.00466941 212.99690464 145.87768555 217.13818359 C140.93901356 222.09320168 135.99779444 227.04567142 131.05511761 231.99669456 C128.07488075 234.98214725 125.0955867 237.96852842 122.1184082 240.95703125 C119.2230358 243.86333987 116.3251634 246.76713474 113.42560768 249.66926956 C112.32884651 250.76786253 111.232958 251.86732748 110.13800621 252.96772385 C108.59787435 254.51521202 107.05454161 256.05944339 105.51049805 257.60302734 C104.63733444 258.47841156 103.76417084 259.35379578 102.86454773 260.25570679 C100.80919158 262.22477851 98.76003427 264.06950444 96.59689331 265.9080658 C89.72201785 271.88021966 83.38450017 278.44149327 76.93920898 284.86791992 C75.41935797 286.37985898 73.89932859 287.89161875 72.37913513 289.4032135 C67.41439466 294.34189628 62.45496248 299.28589129 57.49609375 304.23046875 C55.7860744 305.93512482 54.07604795 307.63977376 52.36601448 309.34441566 C45.25975912 316.42908092 38.15492837 323.5151697 31.0538168 330.60499096 C20.88038404 340.76213844 10.69852235 350.91066738 0.50487655 361.04753035 C-6.66825622 368.1820595 -13.83186964 375.32605705 -20.98837608 382.47726327 C-25.26280106 386.74802644 -29.54135024 391.01446242 -33.83008003 395.27086449 C-37.85550088 399.2663678 -41.86906574 403.27339939 -45.87363243 407.28980064 C-47.34839386 408.76478406 -48.82747737 410.23545996 -50.31105804 411.70157242 C-52.32827595 413.6963143 -54.32966037 415.70567876 -56.32765198 417.71965027 C-56.9243139 418.3024301 -57.52097582 418.88520994 -58.13571841 419.48564976 C-59.93131923 421.25728515 -59.93131923 421.25728515 -62 424 C-61.51892083 428.3003886 -59.05739138 430.31078068 -56.05639648 433.30004883 C-55.28541374 434.07409813 -55.28541374 434.07409813 -54.49885559 434.86378479 C-52.79676836 436.56888075 -51.08417171 438.2629834 -49.37109375 439.95703125 C-48.18041131 441.14465366 -46.99032085 442.33286986 -45.80079651 443.52165222 C-43.30263501 446.01520863 -40.79964426 448.50377468 -38.29272461 450.98852539 C-35.09749256 454.1556288 -31.91085463 457.33119874 -28.72741604 460.51015186 C-25.67427872 463.55809783 -22.61648915 466.60136033 -19.55859375 469.64453125 C-18.98348997 470.21775431 -18.40838619 470.79097736 -17.81585503 471.38157082 C-16.16290028 473.02755309 -14.50663596 474.67013223 -12.84936523 476.31176758 C-12.37475861 476.78525635 -11.90015198 477.25874512 -11.41116333 477.74658203 C-8.78093984 480.34443125 -6.08003411 482.81208689 -3.275177 485.22085571 C1.80253153 489.62993769 6.51228518 494.38810868 11.25219727 499.15454102 C12.25656066 500.16082788 13.26115515 501.16688413 14.26596069 502.17272949 C16.41444065 504.32434957 18.56136233 506.47750786 20.70706367 508.63189888 C24.1051394 512.04359407 27.507113 515.45138493 30.90965271 518.85862732 C38.13024786 526.09028099 45.34659479 533.32616705 52.5625 540.5625 C60.35832077 548.38038252 68.15488516 556.19751489 75.95634884 564.009767 C79.33360721 567.3919853 82.70841766 570.77662112 86.08132756 574.1631757 C88.18437944 576.27372333 90.28953384 578.38216436 92.3952446 580.4900589 C93.82568098 581.92323843 95.25359433 583.3589348 96.68141174 584.79472351 C100.82532854 588.93897814 104.99077315 592.95087542 109.48904896 596.70796204 C111.79149175 598.67681703 113.88397216 600.83413678 116 603 C116.959914 603.95277953 117.92198458 604.90338965 118.88583374 605.85218811 C119.39900146 606.35813004 119.91216919 606.86407196 120.44088745 607.38534546 C120.98552643 607.92212921 121.53016541 608.45891296 122.09130859 609.01196289 C128.04879194 614.88801102 133.9937443 620.77656869 139.93155479 626.67249393 C143.51963908 630.23436947 147.11230032 633.79137508 150.71533203 637.33813477 C154.20734149 640.77597006 157.6871287 644.22574393 161.15864944 647.68426323 C162.48363847 648.99999962 163.8130271 650.31132044 165.14680099 651.61815071 C167.00461646 653.43986309 168.84638416 655.27643071 170.68505859 657.11743164 C171.24184296 657.65623962 171.79862732 658.19504761 172.37228394 658.75018311 C173.87606812 660.27479553 173.87606812 660.27479553 176 663 C175.87199505 666.44846545 174.2765898 668.11831245 171.9296875 670.546875 C171.28829834 671.21855713 170.64690918 671.89023926 169.98608398 672.58227539 C169.28942627 673.29762451 168.59276855 674.01297363 167.875 674.75 C166.40467233 676.2848923 164.93462663 677.82005476 163.46484375 679.35546875 C162.34311768 680.52021729 162.34311768 680.52021729 161.19873047 681.70849609 C157.91443669 685.13136767 154.67572341 688.59611142 151.4375 692.0625 C150.19680986 693.38690171 148.95592417 694.71112026 147.71484375 696.03515625 C147.10237793 696.68887207 146.48991211 697.34258789 145.85888672 698.01611328 C142.73997846 701.34475113 139.61991565 704.67230641 136.5 708 C135.88189453 708.65935547 135.26378906 709.31871094 134.62695312 709.99804688 C131.4901033 713.34423809 128.35285172 716.69005108 125.21484375 720.03515625 C119.13559389 726.51633998 113.06106032 733.00179883 107 739.5 C96.35708448 750.90964871 85.67779936 762.28495357 74.98095703 773.64404297 C70.48103454 778.42350444 65.98817331 783.20950532 61.5 788 C53.00846797 797.06291649 44.49403082 806.10421184 35.97949219 815.14550781 C33.96535391 817.28437261 31.95139708 819.4234081 29.9375 821.5625 C29.28297852 822.25754639 28.62845703 822.95259277 27.95410156 823.66870117 C24.57610771 827.25729834 21.20258903 830.84997654 17.8359375 834.44921875 C17.16054932 835.17101318 16.48516113 835.89280762 15.78930664 836.63647461 C14.51168538 838.00245797 13.23477965 839.36911109 11.95874023 840.73657227 C8.69860346 844.22207877 5.39709779 847.64768504 2 851 C-2.25209209 849.40040345 -4.81463557 846.1831683 -7.75 842.875 C-8.82027657 841.6901962 -9.89189121 840.50659975 -10.96484375 839.32421875 C-11.4841748 838.75106934 -12.00350586 838.17791992 -12.53857422 837.58740234 C-14.40519913 835.55987225 -16.34479229 833.61670071 -18.3125 831.6875 C-21.45781044 828.59407097 -24.34460273 825.34446227 -27.21875 822 C-29.0742521 819.91662922 -31.01223101 817.95718793 -33 816 C-35.55869259 813.48044611 -37.98170611 810.91881218 -40.3125 808.1875 C-43.22250451 804.79804395 -46.32159942 801.63548547 -49.5 798.5 C-53.21846961 794.83153502 -56.73668187 791.0685078 -60.125 787.09375 C-62.93531289 783.95556727 -65.95118637 781.0279331 -68.94873047 778.07080078 C-72.22020631 774.82635263 -75.26963506 771.46382493 -78.2578125 767.9609375 C-80.97166122 764.90633647 -83.90863752 762.08338457 -86.81640625 759.21484375 C-88.77974671 757.22340539 -90.62079669 755.18697422 -92.4375 753.0625 C-95.15619248 749.8896408 -98.02751675 746.93661618 -101 744 C-104.58558699 740.45767801 -107.94891662 736.82444339 -111.22265625 732.99609375 C-113.94977223 729.93333273 -116.89404637 727.09776507 -119.8125 724.21875 C-122.40196881 721.59228878 -124.78836964 718.83023542 -127.1875 716.03125 C-129.2109288 713.76361428 -131.33653347 711.6342305 -133.5 709.5 C-136.9071879 706.13885518 -140.07458174 702.66298797 -143.1875 699.03125 C-145.2109288 696.76361428 -147.33653347 694.6342305 -149.5 692.5 C-152.9071879 689.13885518 -156.07458174 685.66298797 -159.1875 682.03125 C-161.92654841 678.96162678 -164.8768364 676.11471392 -167.8046875 673.2265625 C-170.44006743 670.55366826 -172.87766489 667.74631697 -175.3203125 664.8984375 C-176.98204576 663.02029247 -178.71125525 661.25694484 -180.5 659.5 C-182.91332717 657.12957643 -185.17271853 654.69263692 -187.375 652.125 C-189.96634205 649.1153247 -192.67254783 646.28911384 -195.5 643.5 C-198.26560408 640.77170593 -200.91287031 638.01483166 -203.4375 635.0625 C-206.94229928 630.97221221 -210.75198614 627.2329093 -214.58203125 623.44921875 C-217.30649918 620.6895396 -219.83547376 617.80819343 -222.35546875 614.86328125 C-224.00398752 612.99548207 -225.72303581 611.24544376 -227.5 609.5 C-229.89277491 607.14966899 -232.13191112 604.735776 -234.3125 602.1875 C-237.07618029 598.97666245 -239.98619596 595.97732835 -243 593 C-246.58558699 589.45767801 -249.94891662 585.82444339 -253.22265625 581.99609375 C-255.94855159 578.9347036 -258.89141358 576.10034836 -261.80859375 573.22265625 C-264.42101068 570.5729856 -266.83302621 567.78827197 -269.25390625 564.96484375 C-271.7235936 562.18575486 -274.37903322 559.61139504 -277.02734375 557.00390625 C-279.57337829 554.41753849 -281.92021557 551.6846472 -284.28515625 548.93359375 C-285.96004299 547.04505403 -287.69947587 545.26844352 -289.5 543.5 C-291.851726 541.18980559 -294.05039265 538.82217812 -296.1875 536.3125 C-299.29618225 532.69856917 -302.61139963 529.34742218 -306 526 C-309.82709364 522.2143466 -313.49876564 518.38472867 -316.99609375 514.2890625 C-322.16768532 508.38155244 -327.62398452 502.72085637 -333 497 C-333.64179199 496.31695801 -334.28358398 495.63391602 -334.94482422 494.93017578 C-338.25902598 491.40434128 -341.5757568 487.88090545 -344.89453125 484.359375 C-347.70826349 481.37337344 -350.51769797 478.38340532 -353.32421875 475.390625 C-354.03400879 474.63442871 -354.74379883 473.87823242 -355.47509766 473.09912109 C-356.82070674 471.66537855 -358.16549633 470.23086622 -359.50927734 468.79541016 C-362.46684625 465.64628285 -365.44889417 462.53913858 -368.52734375 459.5078125 C-371.57986798 456.47969476 -374.40148743 453.29776024 -377.20996094 450.04394531 C-380.87486938 445.8591917 -384.74260398 441.85945363 -388.5703125 437.82421875 C-392.19253476 433.98674148 -395.67064579 430.09472299 -399 426 C-397.34324716 421.65234288 -394.09008562 418.90564614 -390.8125 415.75 C-386.59711029 411.6674172 -382.61876874 407.48322955 -378.78393555 403.04003906 C-375.78165449 399.60674763 -372.63737586 396.30945831 -369.5 393 C-368.08579329 391.50274037 -366.67173428 390.00534121 -365.2578125 388.5078125 C-364.54786133 387.75661133 -363.83791016 387.00541016 -363.10644531 386.23144531 C-359.85469466 382.78673032 -356.61410479 379.33160271 -353.375 375.875 C-352.7574585 375.2162085 -352.13991699 374.55741699 -351.50366211 373.87866211 C-347.35018204 369.44591982 -343.20501981 365.00548307 -339.0625 360.5625 C-333.41020702 354.50070171 -327.73577564 348.46006038 -322.05126953 342.4284668 C-318.66024103 338.82966477 -315.2740483 335.22655438 -311.8984375 331.61328125 C-311.23320068 330.90163818 -310.56796387 330.18999512 -309.88256836 329.45678711 C-308.63236489 328.1187069 -307.38309927 326.77974948 -306.13500977 325.43969727 C-303.30911945 322.41630919 -300.45283495 319.44285035 -297.50390625 316.5390625 C-294.44098618 313.50043779 -291.60906398 310.30903566 -288.79052734 307.04443359 C-285.72586124 303.54518162 -282.51384537 300.18629786 -279.3125 296.8125 C-274.51265003 291.73446185 -269.72718773 286.64578339 -265 281.5 C-258.40627503 274.32878834 -251.7168837 267.24830974 -245.03466797 260.15966797 C-241.7691307 256.69351214 -238.50832145 253.22293891 -235.25 249.75 C-234.32405029 248.76326294 -234.32405029 248.76326294 -233.37939453 247.7565918 C-228.91480476 242.99226555 -224.49174381 238.19103265 -220.07641602 233.38110352 C-216.73819681 229.75980058 -213.29571796 226.26929959 -209.78515625 222.81640625 C-207.98081164 220.98047574 -206.29968611 219.07944806 -204.625 217.125 C-201.88378551 213.93317491 -198.99314112 210.95697023 -196 208 C-193.04816975 205.08373397 -190.19611141 202.15394165 -187.5 199 C-184.01547893 194.92376781 -180.21918019 191.20449127 -176.40625 187.4375 C-174.34550655 185.34999365 -172.40484374 183.22830777 -170.5 181 C-167.80388859 177.84605835 -164.95183025 174.91626603 -162 172 C-159.06881809 169.10408042 -156.23596826 166.19757429 -153.5625 163.0625 C-150.25653882 159.19382202 -146.66855322 155.63935695 -143.04931641 152.06884766 C-139.80015827 148.84649591 -136.77563666 145.50668184 -133.80859375 142.02734375 C-130.82349884 138.68120064 -127.59117232 135.58406048 -124.40234375 132.43359375 C-122.36285627 130.36757635 -120.444922 128.26994451 -118.5625 126.0625 C-115.69827626 122.71074881 -112.63665531 119.59443922 -109.5 116.5 C-106.40508128 113.44662382 -103.38065703 110.37676292 -100.5625 107.0625 C-97.06423799 102.95731061 -93.24316838 99.21562795 -89.40917969 95.42871094 C-86.00913777 92.05431359 -82.81236685 88.57511725 -79.70703125 84.92578125 C-77.00778615 81.88063747 -74.07938937 79.07157299 -71.18359375 76.21484375 C-69.22025329 74.22340539 -67.37920331 72.18697422 -65.5625 70.0625 C-62.05650315 65.97081459 -58.24538109 62.23033117 -54.4140625 58.4453125 C-51.71248706 55.70876521 -49.20921265 52.85020634 -46.7109375 49.9296875 C-44.251832 47.15617582 -41.60112779 44.59191511 -38.9609375 41.9921875 C-37.09521194 40.09672926 -35.35340745 38.14553265 -33.625 36.125 C-30.88378551 32.93317491 -27.99314112 29.95697023 -25 27 C-21.4412371 23.48411376 -18.10526991 19.88045904 -14.859375 16.078125 C-11.80527851 12.66472304 -8.51251391 9.49356946 -5.234375 6.296875 C-3.28200692 4.28989522 -1.6126187 2.2827979 0 0 Z " fill="#1C1D20" transform="translate(905,409)"/>
<path d="M0 0 C0.66128906 0.66257812 1.32257813 1.32515625 2.00390625 2.0078125 C4.25486848 4.25956705 6.5150315 6.50183944 8.77734375 8.7421875 C10.16411443 10.11973939 11.55083203 11.49734472 12.9375 12.875 C13.62779297 13.55691406 14.31808594 14.23882813 15.02929688 14.94140625 C18.79117876 18.68545931 22.35681412 22.47607415 25.68408203 26.61401367 C27.08918695 28.2552682 27.08918695 28.2552682 29.9375 29.4375 C33.58942534 31.30072722 35.36247896 33.50485267 37.94921875 36.625 C40.33550707 39.38854914 42.8971429 41.9438665 45.5 44.5 C49.23940622 48.1927346 52.82556501 51.95881271 56.2421875 55.953125 C58.37651348 58.43842903 60.56005345 60.87609644 62.75 63.3125 C63.48734375 64.13363281 64.2246875 64.95476562 64.984375 65.80078125 C66.87972831 67.93842879 66.87972831 67.93842879 68.640625 69.48046875 C70 71 70 71 70.8046875 73.3046875 C72.47723739 77.07612352 75.13638602 79.34441019 78.125 82.125 C80.17267437 84.03210176 82.08810525 85.9477827 84 88 C84 88.99 84 89.98 84 91 C84.53109375 91.20238281 85.0621875 91.40476562 85.609375 91.61328125 C89.04215908 93.60452038 91.5090081 96.34463616 94.25 99.1875 C98.48186537 103.50466613 102.7571371 107.65557403 107.35546875 111.5859375 C110.45519171 114.25125748 113.33369299 116.73401667 115.25 120.375 C117.06050417 123.09075625 118.65356359 124.37833031 121.25 126.3125 C126.5738065 130.30101953 131.49462937 134.67063735 134.2734375 140.81640625 C136.49668006 144.91582408 139.39759588 147.68016502 142.75 150.875 C144.02520345 152.11928649 145.29866311 153.36536277 146.5703125 154.61328125 C147.17262695 155.20318848 147.77494141 155.7930957 148.39550781 156.40087891 C150.79018193 158.78753676 152.98754359 161.31264573 155.17578125 163.88671875 C162.0319886 171.82934868 169.31556654 179.37108802 176.7734375 186.74609375 C179.33385627 189.33795626 181.71915202 192.03975106 184.09375 194.80078125 C190.11279148 201.74488033 196.1278056 208.66933708 203.34375 214.40234375 C205 216 205 216 206.36425781 218.34570312 C207.97923479 220.96630457 209.65703155 222.896636 211.828125 225.06640625 C212.54484375 225.79923828 213.2615625 226.53207031 214 227.28710938 C215.50968929 228.81383509 217.02541264 230.33461582 218.546875 231.84960938 C219.2584375 232.58115234 219.97 233.31269531 220.703125 234.06640625 C221.35958008 234.72584229 222.01603516 235.38527832 222.69238281 236.06469727 C224 238 224 238 223.70605469 240.24584961 C223.47305664 240.82471924 223.24005859 241.40358887 223 242 C222.34 242 221.68 242 221 242 C220.73678955 242.58394531 220.4735791 243.16789063 220.20239258 243.76953125 C218.9433629 246.10506326 217.57447573 247.75605211 215.76171875 249.6875 C215.11219238 250.38109619 214.46266602 251.07469238 213.79345703 251.78930664 C213.09849121 252.51883545 212.40352539 253.24836426 211.6875 254 C210.97706543 254.74950928 210.26663086 255.49901855 209.53466797 256.27124023 C205.01648727 260.99671857 200.41159827 265.60882876 195.625 270.0625 C195.08447998 270.56845703 194.54395996 271.07441406 193.98706055 271.59570312 C190.25259516 275 190.25259516 275 188 275 C187.62875 275.8353125 187.62875 275.8353125 187.25 276.6875 C185.43760226 280.04043581 183.46885508 283.26557246 180 285 C179.70609375 285.763125 179.4121875 286.52625 179.109375 287.3125 C176.4484117 293.75877728 169.47112073 298.83152706 164 303 C163.34 303 162.68 303 162 303 C161.62875 304.175625 161.62875 304.175625 161.25 305.375 C159.79075497 308.43941457 158.94985044 308.61725761 156 310 C155.29848848 311.3153341 154.63474075 312.65117592 154 314 C152 316.25 152 316.25 150 318 C149.34 318 148.68 318 148 318 C147.62875 318.86625 147.62875 318.86625 147.25 319.75 C145.83073705 322.3046733 144.05930146 323.94069854 142 326 C141.690625 326.70125 141.38125 327.4025 141.0625 328.125 C139.58568179 330.73114978 137.72225359 330.91109857 135 332 C133.89163577 333.88316159 133.89163577 333.88316159 133 336 C131 338.25 131 338.25 129 340 C128.34 340 127.68 340 127 340 C127 340.66 127 341.32 127 342 C125.69112542 343.35735142 124.35147138 344.68505488 123 346 C122.11630939 347.07625602 121.24147473 348.15983595 120.375 349.25 C119.59125 350.1575 118.8075 351.065 118 352 C117.34 352 116.68 352 116 352 C115.7628125 352.55171875 115.525625 353.1034375 115.28125 353.671875 C113.68754857 356.56774711 111.71082727 358.79512037 109.5 361.25 C108.7059375 362.14203125 107.911875 363.0340625 107.09375 363.953125 C105 366 105 366 103 366 C102.814375 366.70125 102.62875 367.4025 102.4375 368.125 C100.74976775 371.50046451 98.8264928 372.99455986 95.93359375 375.328125 C93.21196306 377.68137335 90.96915211 380.36687472 88.63671875 383.09765625 C86.52857103 385.54793773 84.38638401 387.81816319 82 390 C81.34 390 80.68 390 80 390 C80 390.99 80 391.98 80 393 C79.34 393 78.68 393 78 393 C77.6596875 393.8353125 77.6596875 393.8353125 77.3125 394.6875 C75.62449964 397.66159588 73.53323483 399.72008865 71 402 C70.34 402 69.68 402 69 402 C68.85884766 403.10408203 68.85884766 403.10408203 68.71484375 404.23046875 C67.89467004 407.40808164 66.75090067 408.89661485 64.5625 411.3125 C63.94503906 412.00988281 63.32757812 412.70726562 62.69140625 413.42578125 C61 415 61 415 59 415 C58.938125 415.556875 58.87625 416.11375 58.8125 416.6875 C57.64834483 420.00086472 55.60541556 421.70475296 53 424 C52.01 424.33 51.02 424.66 50 425 C49.29190825 426.31180345 48.63066498 427.64926542 48 429 C46.93737248 430.34635175 45.82998752 431.65821796 44.6875 432.9375 C43.75164062 433.98550781 43.75164062 433.98550781 42.796875 435.0546875 C40.59650308 437.43682928 38.29289619 439.70710381 36 442 C35.0563796 443.11987133 34.11932129 444.24529193 33.1875 445.375 C31.02411286 447.94678165 28.77304085 450.10564271 26.1875 452.25 C21.91406601 455.86031492 18.59079475 460.03529819 15.17578125 464.44921875 C12.97909079 467.02451296 10.66123889 468.92388693 8 471 C6.50298455 472.64315155 6.50298455 472.64315155 5.3125 474.25 C4.549375 475.1575 3.78625 476.065 3 477 C2.34 477 1.68 477 1 477 C0.67 477.66 0.34 478.32 0 479 C-0.35983978 478.56910568 -0.71967957 478.13821136 -1.09042358 477.69425964 C-6.88793374 470.90340205 -13.21632778 464.6571097 -19.5390625 458.36328125 C-20.7504134 457.15380013 -21.96154022 455.94409456 -23.17245483 454.73417664 C-26.34112717 451.56929622 -29.51278903 448.40742879 -32.68511963 445.24621582 C-35.90908214 442.03249841 -39.13020699 438.8159396 -42.3515625 435.59960938 C-47.55423018 430.40569422 -52.7585723 425.21346437 -57.96528625 420.02360535 C-60.1530806 417.84269123 -62.33712438 415.6588419 -64.50846863 413.46151733 C-67.06459676 410.9361814 -69.70164944 408.53267025 -72.36987305 406.1262207 C-82.38725838 396.96265468 -91.87172314 387.23649422 -101.449507 377.61895537 C-104.21822988 374.84012045 -106.99030811 372.06463706 -109.76213074 369.28889465 C-116.78192464 362.25809136 -123.79743333 355.22301946 -130.8125 348.1875 C-138.40740946 340.57048688 -146.00309956 332.95426102 -153.60367793 325.34290391 C-156.88783956 322.05379469 -160.16955679 318.7622726 -163.44934714 315.46880472 C-165.49344052 313.41720359 -167.53964728 311.36772003 -169.58640671 309.31877899 C-170.97247463 307.92997595 -172.35601759 306.53865431 -173.73945618 305.14723206 C-178.10828001 300.77804246 -182.54135946 296.56750426 -187.22759342 292.54069042 C-189.75088402 290.34728305 -192.13278988 288.02502408 -194.51391602 285.67895508 C-195.24959557 284.95554176 -195.24959557 284.95554176 -196.00013733 284.21751404 C-197.58762224 282.65442082 -199.17130805 281.08757125 -200.75390625 279.51953125 C-201.29944593 278.97931524 -201.84498562 278.43909924 -202.40705681 277.88251305 C-205.28144721 275.03462319 -208.1523103 272.18322634 -211.02075195 269.3293457 C-213.39117666 266.97236464 -215.76870621 264.62290943 -218.15258789 262.27954102 C-221.04521513 259.43604021 -223.92555254 256.58063653 -226.79728508 253.71603966 C-227.89074476 252.6293057 -228.98846507 251.54684151 -230.09045601 250.46875954 C-231.6224156 248.96822388 -233.13805055 247.45289061 -234.65063477 245.93286133 C-235.51697037 245.07461258 -236.38330597 244.21636383 -237.27589417 243.33210754 C-239 241 -239 241 -238.76534373 239.03507644 C-237.45889601 235.56118507 -234.64533305 233.24267186 -232.04917908 230.6816864 C-231.42101856 230.05025705 -230.79285805 229.41882769 -230.14566237 228.76826411 C-228.03249395 226.64779529 -225.9087486 224.53824658 -223.78491211 222.4284668 C-222.27003308 220.91279713 -220.75580703 219.39647458 -219.2421875 217.87954712 C-215.12261066 213.75482602 -210.99373933 209.63952376 -206.86304927 205.52593589 C-202.54153782 201.2194468 -198.2281187 196.90486709 -193.91371155 192.59126282 C-186.66110507 185.34235233 -179.40288063 178.09910703 -172.14086914 170.85961914 C-162.83135212 161.57891821 -153.5310612 152.28902934 -144.23371029 142.99614239 C-136.23363455 135.00005528 -128.22930474 127.00823048 -120.22429967 119.01707864 C-117.65600172 116.45287089 -115.08828389 113.8880833 -112.52064323 111.32321739 C-108.47580277 107.28329155 -104.42831118 103.24603961 -100.37879181 99.21080399 C-98.89613769 97.73265113 -97.41430506 96.25367373 -95.9333744 94.77379417 C-93.90444915 92.7466311 -91.87247 90.72257767 -89.83970642 88.69926453 C-89.26059429 88.11928591 -88.68148215 87.53930729 -88.08482116 86.94175357 C-84.44549498 83.3276043 -80.67660113 79.90986263 -76.78928256 76.56372637 C-74.25104554 74.34545842 -71.86958259 71.98916095 -69.48950195 69.60302734 C-68.99893311 69.11260452 -68.50836426 68.6221817 -68.00292969 68.11689758 C-66.41232589 66.52560783 -64.82527718 64.93082466 -63.23828125 63.3359375 C-62.11848138 62.21426736 -60.99845668 61.09282163 -59.8782196 59.97158813 C-56.95007227 57.03965186 -54.02493876 54.10472718 -51.10046387 51.16912842 C-48.12804052 48.18645674 -45.15277317 45.20662502 -42.17773438 42.2265625 C-36.94409779 36.98339822 -31.7129348 31.73777735 -26.4835968 26.49032593 C-23.9913155 23.99129197 -21.49619218 21.49512703 -19 19 C-17.85567505 17.85567505 -17.85567505 17.85567505 -16.68823242 16.68823242 C-11.12548828 11.12548828 -5.56274414 5.56274414 0 0 Z " fill="#423488" transform="translate(1081,595)"/>
<path d="M0 0 C1.15653076 0.00491455 2.31306152 0.0098291 3.50463867 0.01489258 C11.52102626 0.12518649 18.63243957 0.66337633 26.25 3.3125 C27.31734375 3.66441406 28.3846875 4.01632812 29.484375 4.37890625 C52.4586969 12.54935172 68.27697484 27.91635072 79.25 49.3125 C80.7886558 52.59239324 82.08422958 55.88345458 83.25 59.3125 C83.59804688 60.32957031 83.94609375 61.34664062 84.3046875 62.39453125 C93.70224833 91.30746474 90.67554195 122.23220707 77.24414062 149.34277344 C73.02487508 157.26337074 67.56822237 163.98338414 61.25 170.3125 C60.56421875 171.00988281 59.8784375 171.70726562 59.171875 172.42578125 C40.84110362 189.90790581 17.79686218 194.04606084 -6.62109375 193.6953125 C-15.09806458 193.3868169 -22.00658719 191.77414883 -29.75 188.3125 C-30.69359375 187.91675781 -31.6371875 187.52101563 -32.609375 187.11328125 C-42.35670636 182.6679074 -49.20489048 175.85760952 -56.75 168.3125 C-57.08 200.9825 -57.41 233.6525 -57.75 267.3125 C-73.26 267.3125 -88.77 267.3125 -104.75 267.3125 C-104.75 180.5225 -104.75 93.7325 -104.75 4.3125 C-91.22 4.3125 -77.69 4.3125 -63.75 4.3125 C-62.05841221 11.64271376 -60.36852564 18.96688364 -58.75 26.3125 C-58.09 26.3125 -57.43 26.3125 -56.75 26.3125 C-55.18351142 24.72512601 -55.18351142 24.72512601 -53.5625 22.6875 C-39.82640995 6.66676253 -20.6872447 -0.10329401 0 0 Z " fill="#1C1D21" transform="translate(607.75,1370.6875)"/>
<path d="M0 0 C13.7041953 11.48564092 21.19551257 28.62264218 23.50390625 46.12890625 C24.14121152 55.09992598 23.98673134 64.10621395 23.909482 73.09373975 C23.88412828 76.55163142 23.88210006 80.00954375 23.87738037 83.46751404 C23.8650487 89.98715906 23.83236325 96.50652923 23.79198241 103.02605432 C23.74695521 110.46036717 23.72520066 117.89469456 23.70520067 125.32911026 C23.66361914 140.59589425 23.59039318 155.86230056 23.50390625 171.12890625 C9.97390625 171.12890625 -3.55609375 171.12890625 -17.49609375 171.12890625 C-19.43359375 160.81640625 -19.43359375 160.81640625 -20.03881836 157.5769043 C-20.19874268 156.73168213 -20.35866699 155.88645996 -20.5234375 155.015625 C-20.68577881 154.15155029 -20.84812012 153.28747559 -21.01538086 152.3972168 C-21.48315589 149.97992801 -21.48315589 149.97992801 -22.49609375 147.12890625 C-23.03234375 147.97453125 -23.56859375 148.82015625 -24.12109375 149.69140625 C-31.7802248 161.0205376 -41.53826313 167.71386945 -54.49609375 172.12890625 C-55.62869629 172.52166748 -55.62869629 172.52166748 -56.78417969 172.92236328 C-64.15577438 175.23129018 -71.15956139 175.59298464 -78.85644531 175.52001953 C-80.86202563 175.50397878 -82.86557528 175.51992962 -84.87109375 175.5390625 C-96.46895057 175.50474931 -107.32478597 173.92361276 -117.68359375 168.50390625 C-118.69075439 167.98666992 -118.69075439 167.98666992 -119.71826172 167.45898438 C-132.69930994 160.50830535 -141.41910623 149.64324248 -146.68359375 136.06640625 C-150.69031253 121.5805768 -149.90659566 105.69470109 -142.54296875 92.56640625 C-132.56408034 75.65736116 -117.13662534 67.14219476 -98.49609375 62.12890625 C-89.56599796 60.15675237 -80.87937048 59.86087332 -71.76171875 59.93359375 C-70.38881641 59.93733528 -69.01591136 59.94017684 -67.64300537 59.94216919 C-64.07235012 59.94971612 -60.50186397 59.96928481 -56.93127441 59.99157715 C-53.27061245 60.01223113 -49.6099225 60.02121221 -45.94921875 60.03125 C-38.79810894 60.05254155 -31.64711253 60.08656583 -24.49609375 60.12890625 C-24.77425501 57.24747947 -25.06358223 54.36790679 -25.359375 51.48828125 C-25.43643677 50.67794434 -25.51349854 49.86760742 -25.59289551 49.03271484 C-26.44854291 40.86988007 -28.67174661 34.44239926 -34.80859375 28.75390625 C-43.17713376 22.31797025 -50.90789039 20.94007905 -61.24609375 20.87890625 C-62.10203125 20.85828125 -62.95796875 20.83765625 -63.83984375 20.81640625 C-73.62324204 20.75711293 -82.05571348 23.66936707 -89.49609375 30.12890625 C-93.65482908 35.10307988 -95.92461456 40.12878814 -98.49609375 46.12890625 C-113.34609375 46.12890625 -128.19609375 46.12890625 -143.49609375 46.12890625 C-141.49737872 28.14047095 -135.25999763 12.35769056 -120.80224609 0.77148438 C-86.47710722 -24.97003474 -34.62441311 -25.95476351 0 0 Z " fill="#1D1D21" transform="translate(1310.49609375,1388.87109375)"/>
<path d="M0 0 C1.99395207 0.00315307 3.98788534 -0.02116039 5.98168945 -0.0456543 C27.9393581 -0.05650831 51.03704287 6.99910889 67.12036133 22.44848633 C74.40859417 30.56618421 79.72202425 39.7981946 82.69458008 50.31567383 C82.96011185 51.24605972 83.22564362 52.17644562 83.4992218 53.13502502 C86.56638246 65.90395138 86.08328046 78.81714998 85.99876189 91.87579036 C85.97978425 95.3110197 85.97822829 98.74626013 85.97468567 102.18153381 C85.96542625 108.66223052 85.94089688 115.14277223 85.9106372 121.62340122 C85.87690098 129.01173644 85.86055928 136.40007973 85.84555089 143.78847301 C85.81434046 158.96430669 85.75940665 174.1399395 85.69458008 189.31567383 C72.49458008 189.31567383 59.29458008 189.31567383 45.69458008 189.31567383 C44.04458008 181.06567383 42.39458008 172.81567383 40.69458008 164.31567383 C38.71458008 167.28567383 36.73458008 170.25567383 34.69458008 173.31567383 C27.03938369 182.64356076 17.10291957 187.85860126 5.69458008 191.31567383 C4.5730957 191.6740332 3.45161133 192.03239258 2.29614258 192.40161133 C-4.11366737 193.95769786 -10.74815608 193.71164092 -17.30541992 193.69067383 C-17.99861328 193.68946533 -18.69180664 193.68825684 -19.40600586 193.68701172 C-39.45165192 193.59193172 -57.33064333 189.02130302 -72.15307617 174.74145508 C-82.45864674 163.12664687 -85.47757745 151.79451711 -85.61791992 136.62817383 C-85.64692383 135.60272461 -85.67592773 134.57727539 -85.70581055 133.52075195 C-85.81550062 120.16387618 -80.31300154 108.45027989 -71.30541992 98.69067383 C-50.02555639 78.48194437 -21.44000995 77.84429015 6.07049561 78.10968018 C9.64435454 78.1407965 13.21827996 78.15416076 16.79223633 78.16918945 C23.75984384 78.20101935 30.7271927 78.25197591 37.69458008 78.31567383 C37.571114 76.10557433 37.43763678 73.89603289 37.30004883 71.68676758 C37.22681396 70.45627686 37.1535791 69.22578613 37.078125 67.95800781 C36.29589071 60.52952064 33.84955887 53.40244426 28.67504883 47.88208008 C20.39589383 41.33387267 11.87103987 39.12236011 1.63208008 39.06567383 C0.72780273 39.04504883 -0.17647461 39.02442383 -1.1081543 39.00317383 C-10.88515593 38.94726531 -18.77860495 41.02229996 -26.32885742 47.35864258 C-31.52971046 52.50810378 -33.28400351 57.24071637 -35.30541992 64.31567383 C-50.15541992 64.31567383 -65.00541992 64.31567383 -80.30541992 64.31567383 C-80.30541992 48.40360068 -73.6873778 34.00106007 -62.67260742 22.52270508 C-45.68837323 6.68756924 -22.7780074 -0.07497333 0 0 Z " fill="#1C1D21" transform="translate(811.305419921875,1370.684326171875)"/>
<path d="M0 0 C16.83 0 33.66 0 51 0 C55.49999793 8.99999587 55.49999793 8.99999587 57.04858398 12.88095093 C57.40169647 13.76098282 57.75480896 14.64101471 58.11862183 15.54771423 C58.49068756 16.48506912 58.8627533 17.42242401 59.24609375 18.38818359 C59.64990265 19.39741379 60.05371155 20.40664398 60.46975708 21.44645691 C61.79561414 24.76248567 63.11658051 28.08043916 64.4375 31.3984375 C65.36354847 33.71729406 66.28990422 36.03602793 67.21655273 38.35464478 C69.4029119 43.82738362 71.58620099 49.30133906 73.76797771 54.77590621 C76.48022644 61.58101419 79.19718858 68.3842374 81.9140625 75.1875 C85.90579097 85.18436417 89.89521031 95.18214585 93.88137817 105.18122864 C94.57863172 106.93006971 95.2765947 108.67862815 95.97537231 110.42686081 C96.6941237 112.23185533 97.40760024 114.03895501 98.11715698 115.84758377 C98.47544586 116.75684994 98.83373474 117.6661161 99.20288086 118.60293579 C99.52421494 119.42338694 99.84554901 120.24383808 100.17662048 121.08915138 C100.84806044 122.97124947 100.84806044 122.97124947 102 124 C102.37060547 123.05833984 102.74121094 122.11667969 103.12304688 121.14648438 C111.94206914 98.74493887 120.82887016 76.37157152 129.78739929 54.02546692 C132.10047824 48.25297455 134.40509392 42.47715211 136.70558167 36.69963074 C138.37465733 32.50807567 140.04560976 28.31726982 141.71664429 24.12649536 C142.52777977 22.09077949 143.33802775 20.05470975 144.14736938 18.01828003 C145.27170174 15.1896389 146.39917204 12.36226784 147.52734375 9.53515625 C147.8650882 8.68305573 148.20283264 7.8309552 148.55081177 6.95303345 C150.88612559 1.11387441 150.88612559 1.11387441 152 0 C153.56547048 -0.09326716 155.13512772 -0.11745582 156.70336914 -0.11352539 C157.70433121 -0.11344986 158.70529327 -0.11337433 159.73658752 -0.11329651 C160.8251152 -0.10813522 161.91364288 -0.10297394 163.03515625 -0.09765625 C164.6977372 -0.09553383 164.6977372 -0.09553383 166.39390564 -0.09336853 C169.95013069 -0.08775033 173.50629383 -0.07519475 177.0625 -0.0625 C179.46679597 -0.05748734 181.87109292 -0.05292403 184.27539062 -0.04882812 C190.18361504 -0.03777499 196.0918031 -0.02101917 202 0 C198.39561309 9.65800443 194.44642035 19.1404275 190.38793945 28.61401367 C188.49911128 33.02413803 186.61857537 37.43779418 184.73828125 41.8515625 C184.34762482 42.76838806 183.95696838 43.68521362 183.55447388 44.62982178 C179.32474165 54.56778682 175.16084649 64.53304718 171 74.5 C164.75732554 89.44907303 158.45902551 104.37327093 152.11083984 119.27783203 C147.54196614 130.00538872 142.99797711 140.74252491 138.5 151.5 C133.62242285 163.16253853 128.69749151 174.8044512 123.75 186.4375 C123.39594086 187.27014374 123.04188171 188.10278748 122.67709351 188.96066284 C118.95959269 197.70231551 115.23820947 206.44230826 111.51278687 215.18058777 C109.97993334 218.77676515 108.44832147 222.37347067 106.91687012 225.97024536 C105.84849451 228.47801118 104.77828478 230.98498858 103.70800781 233.49194336 C100.06525512 242.04063749 96.51961729 250.6146017 93.13549805 259.26928711 C92 262 92 262 91 263 C89.4651703 263.09319449 87.92607918 263.117458 86.38842773 263.11352539 C85.40748642 263.11344986 84.4265451 263.11337433 83.4158783 263.11329651 C82.3492244 263.10813522 81.2825705 263.10297394 80.18359375 263.09765625 C78.55430687 263.09553383 78.55430687 263.09553383 76.8921051 263.09336853 C73.40720925 263.08775048 69.92237658 263.07519492 66.4375 263.0625 C64.08138113 263.05748733 61.72526126 263.05292402 59.36914062 263.04882812 C53.57940536 263.03777519 47.78970719 263.02101951 42 263 C43.79586198 257.35610039 45.7883335 251.90639807 48.23046875 246.51171875 C48.53833817 245.82237747 48.84620758 245.13303619 49.16340637 244.42280579 C49.82460662 242.94371656 50.48771492 241.46547903 51.15258789 239.98803711 C52.20573545 237.64696388 53.25297942 235.30332658 54.29882812 232.95898438 C57.67287991 225.40096003 61.06534388 217.85132119 64.46955872 210.30683899 C65.95941527 207.00164524 67.44370477 203.69396817 68.92715454 200.38589478 C69.98637836 198.03029309 71.05401691 195.67862373 72.12182617 193.3269043 C72.76916351 191.88480301 73.41607773 190.44251169 74.0625 189 C74.36170853 188.34743729 74.66091705 187.69487457 74.9691925 187.02253723 C76.44939374 183.69368298 77 181.72794566 77 178 C75.87498505 175.75301891 74.69230053 173.61031476 73.4375 171.4375 C68.81215205 163.03049146 64.99030359 154.32370094 61.25 145.5 C60.94234711 144.77458008 60.63469421 144.04916016 60.31771851 143.30175781 C58.99021501 140.16852503 57.66475414 137.03443934 56.34199524 133.89920044 C52.14954425 123.96684708 47.88737159 114.06445804 43.63287354 104.15856934 C36.58715335 87.74726878 29.56421133 71.32692677 22.63232422 54.8671875 C20.92290895 50.81336445 19.20486049 46.76320881 17.48730469 42.71282959 C15.74118072 38.59432251 13.9969933 34.47499659 12.25299072 30.35559082 C11.38261682 28.30082514 10.51149392 26.24637655 9.6395874 24.19226074 C8.41253561 21.30094876 7.18838705 18.40842313 5.96484375 15.515625 C5.5945253 14.64490356 5.22420685 13.77418213 4.84266663 12.8770752 C4.49747482 12.05944702 4.15228302 11.24181885 3.79663086 10.39941406 C3.49671738 9.69173889 3.19680389 8.98406372 2.88780212 8.25494385 C1.8198541 5.54244434 0.92185501 2.76556502 0 0 Z " fill="#1C1D21" transform="translate(1351,1375)"/>
<path d="M0 0 C15.51 0 31.02 0 47 0 C47 86.79 47 173.58 47 263 C31.49 263 15.98 263 0 263 C0 176.21 0 89.42 0 0 Z " fill="#1B1C20" transform="translate(1078,1297)"/>
<path d="M0 0 C0 16.17 0 32.34 0 49 C-10.395 49.495 -10.395 49.495 -21 50 C-32.85512266 51.74610334 -45.02045518 54.49212692 -53.40625 63.76171875 C-61.46567286 75.08046703 -64.28585239 86.58152696 -64.31884766 100.31494141 C-64.33391609 101.78016739 -64.33391609 101.78016739 -64.34928894 103.2749939 C-64.37989914 106.46717806 -64.39709396 109.65927924 -64.4140625 112.8515625 C-64.432792 115.07930199 -64.45236672 117.30703453 -64.4727478 119.53475952 C-64.52388666 125.37074666 -64.5636097 131.20675676 -64.60089111 137.04284668 C-64.64811747 144.05984691 -64.7096366 151.07673486 -64.76873779 158.09364319 C-64.85672737 168.72904968 -64.92665129 179.36443709 -65 190 C-80.84 190 -96.68 190 -113 190 C-113 128.62 -113 67.24 -113 4 C-99.14 4 -85.28 4 -71 4 C-68.75 15.25 -68.75 15.25 -68.1484375 19.7890625 C-68.01953125 20.74941406 -67.890625 21.70976563 -67.7578125 22.69921875 C-67.63148438 23.66472656 -67.50515625 24.63023438 -67.375 25.625 C-67.17390625 27.13126953 -67.17390625 27.13126953 -66.96875 28.66796875 C-66.64293123 31.11160952 -66.32006186 33.55559973 -66 36 C-65.63390625 35.34515625 -65.2678125 34.6903125 -64.890625 34.015625 C-54.43792732 16.3953632 -39.68536281 6.25232393 -20 1 C-13.15054081 -0.38183361 -7.29715522 0 0 0 Z " fill="#1D1D21" transform="translate(1050,1371)"/>
<path d="M0 0 C10.48588034 8.39673943 16.71167289 21.44413103 18.9140625 34.5078125 C20.63577311 51.36574836 18.51099812 67.16563786 8.6015625 81.1953125 C0.38899654 91.15787154 -10.14322361 98.35879608 -23.20874023 99.73071289 C-37.47838905 100.48483313 -49.51492527 98.39356873 -61.0859375 89.5078125 C-61.9521875 88.9303125 -62.8184375 88.3528125 -63.7109375 87.7578125 C-74.00721908 78.00344048 -79.8583317 63.53256325 -80.38671875 49.45703125 C-80.58127976 32.06098785 -78.26408928 16.84482587 -65.8359375 3.5703125 C-47.72270073 -13.30229162 -19.84372905 -14.19532677 0 0 Z " fill="#FDFDFC" transform="translate(630.0859375,1422.4921875)"/>
<path d="M0 0 C1.1679007 0.0028299 2.33580139 0.00565979 3.53909302 0.00857544 C7.25793841 0.01974277 10.97654027 0.04484146 14.6953125 0.0703125 C17.22135068 0.08034674 19.74739265 0.08947181 22.2734375 0.09765625 C28.45581183 0.11967085 34.63804476 0.15311435 40.8203125 0.1953125 C38.52040738 16.90722523 34.16555792 29.28181179 21.1953125 40.43359375 C13.24614525 46.33009775 5.24073585 47.40766042 -4.3671875 47.5078125 C-5.27533203 47.53681641 -6.18347656 47.56582031 -7.11914062 47.59570312 C-15.19003768 47.67080811 -20.81485839 45.41736946 -27.4921875 41.0078125 C-32.36955214 35.90359369 -34.38637561 30.68207502 -34.6796875 23.6328125 C-34.4299759 17.68135259 -32.87342914 13.09335477 -28.7890625 8.69921875 C-25.58187623 5.85495092 -22.0858949 3.90427824 -18.1796875 2.1953125 C-17.37901855 1.84227051 -16.57834961 1.48922852 -15.75341797 1.12548828 C-10.50138416 -0.24151874 -5.40375671 -0.04943593 0 0 Z " fill="#FCFCFB" transform="translate(1245.1796875,1479.8046875)"/>
<path d="M0 0 C1.53102104 0.0001133 1.53102104 0.0001133 3.0929718 0.00022888 C4.72760628 0.00797081 4.72760628 0.00797081 6.39526367 0.01586914 C7.52018723 0.01728409 8.64511078 0.01869904 9.80412292 0.02015686 C13.39052001 0.02574608 16.97685426 0.03829667 20.56323242 0.05102539 C22.99747631 0.05604178 25.43172118 0.06060445 27.8659668 0.06469727 C33.82757671 0.07571199 39.78915008 0.09243945 45.75073242 0.11352539 C45.87204841 5.99846152 45.06546767 10.42090759 43.18823242 15.92602539 C42.91865723 16.71920166 42.64908203 17.51237793 42.37133789 18.32958984 C40.09651309 24.70575539 37.30031869 30.03898687 32.75073242 35.11352539 C31.87674805 36.09192383 31.87674805 36.09192383 30.98510742 37.09008789 C22.38738893 45.57943178 12.20435289 47.60643859 0.56323242 47.73852539 C-8.4741825 47.63543124 -15.28303362 46.73254384 -22.09301758 40.39868164 C-27.85096338 34.19259383 -28.66535072 28.52262599 -28.48754883 20.20336914 C-28.02971024 14.26647864 -25.70419008 11.36202843 -21.49926758 7.42602539 C-15.05944831 2.07329488 -8.3582168 -0.02073999 0 0 Z " fill="#FCFCFB" transform="translate(803.249267578125,1479.886474609375)"/>
<path d="M0 0 C0 3 0 3 -1.94140625 5.19921875 C-3.23884766 6.43091797 -3.23884766 6.43091797 -4.5625 7.6875 C-8.40570134 11.41127983 -12.00984815 15.20730518 -15.48828125 19.26953125 C-17.54690843 21.62604764 -19.78783907 23.78783907 -22 26 C-23.83306096 28.12858712 -25.65048503 30.26809845 -27.44921875 32.42578125 C-27.96097656 32.94527344 -28.47273438 33.46476563 -29 34 C-29.66 34 -30.32 34 -31 34 C-31.22300781 34.54140625 -31.44601562 35.0828125 -31.67578125 35.640625 C-33.42071316 38.74958923 -35.75266363 41.17910045 -38.1875 43.75 C-39.18057543 44.81167014 -40.17276174 45.87417263 -41.1640625 46.9375 C-41.6477832 47.45570313 -42.13150391 47.97390625 -42.62988281 48.5078125 C-45.06006981 51.15451651 -47.36357637 53.90924101 -49.66015625 56.671875 C-51 58 -51 58 -53 58 C-53.37125 58.86625 -53.37125 58.86625 -53.75 59.75 C-55.18299988 62.32939979 -56.78424676 64.06121592 -59 66 C-59.66 66 -60.32 66 -61 66 C-61.27070312 66.58523438 -61.54140625 67.17046875 -61.8203125 67.7734375 C-62.99141283 69.98379242 -64.25775577 71.72285264 -65.875 73.625 C-66.36742187 74.21539063 -66.85984375 74.80578125 -67.3671875 75.4140625 C-69.13208324 77.12829138 -70.78820005 77.95627914 -73 79 C-77.09419802 82.75301486 -80.62867333 86.985424 -84.23046875 91.20703125 C-85.10638672 92.09455078 -85.10638672 92.09455078 -86 93 C-86.66 93 -87.32 93 -88 93 C-88.2475 93.61875 -88.495 94.2375 -88.75 94.875 C-90.23740369 97.40358627 -91.43678009 97.71839004 -94 99 C-94.2784375 99.57234375 -94.556875 100.1446875 -94.84375 100.734375 C-96.33650712 103.65937207 -98.30489718 105.81258063 -100.5 108.25 C-101.2940625 109.14203125 -102.088125 110.0340625 -102.90625 110.953125 C-105 113 -105 113 -107 113 C-107.2784375 114.051875 -107.2784375 114.051875 -107.5625 115.125 C-109.24944861 118.49889722 -111.17045884 119.99251056 -114.0625 122.32421875 C-116.81253388 124.70277628 -119.08500982 127.41308896 -121.4296875 130.18359375 C-123 132 -123 132 -125.3125 134.1875 C-127.27945478 136.30015514 -128.09338464 138.28015391 -129 141 C-129.66 141 -130.32 141 -131 141 C-131.39638672 141.87398437 -131.39638672 141.87398437 -131.80078125 142.765625 C-133.04782497 145.08910711 -134.42313151 146.79587105 -136.1875 148.75 C-136.81011719 149.44480469 -137.43273438 150.13960937 -138.07421875 150.85546875 C-139.02748047 151.91701172 -139.02748047 151.91701172 -140 153 C-141.16769061 154.35328382 -142.33437923 155.70743296 -143.5 157.0625 C-145.7031847 159.58881846 -147.96668389 161.98187151 -150.375 164.3125 C-153.26390962 167.14350274 -155.78759516 170.15304087 -158.3125 173.3125 C-164.20620042 180.62673334 -170.63210362 187.17422146 -178 193 C-179.68873879 194.64429829 -181.35305515 196.31384218 -183 198 C-183.52464844 198.50273438 -184.04929687 199.00546875 -184.58984375 199.5234375 C-188.84396719 203.63286287 -192.49569886 208.04819254 -196.14453125 212.69921875 C-198.76006252 215.94247753 -201.63244132 218.73374196 -204.6875 221.5625 C-206.2141682 223.23456517 -207.07757479 224.94228223 -208 227 C-208.66 225.68 -209.32 224.36 -210 223 C-208.9171875 222.195625 -208.9171875 222.195625 -207.8125 221.375 C-204.79145155 218.82389242 -202.49754442 216.05949191 -200 213 C-198.3347404 211.33192746 -196.66787835 209.66545411 -195 208 C-193.1450382 206.0195673 -191.32195676 204.01078701 -189.5 202 C-186.08790156 198.23426671 -182.59440972 194.59440972 -179 191 C-177.81923068 189.67913941 -176.65121139 188.34670012 -175.5 187 C-172.78512643 183.86294307 -169.93401409 180.93401409 -167 178 C-166.0563796 176.88012867 -165.11932129 175.75470807 -164.1875 174.625 C-161.31629304 171.20048753 -158.09517514 168.3975904 -154.63671875 165.578125 C-152.74042264 163.99366534 -152.74042264 163.99366534 -152 161 C-151.34 161 -150.68 161 -150 161 C-149.6596875 160.195625 -149.6596875 160.195625 -149.3125 159.375 C-148 157 -148 157 -145.4375 153.9375 C-142.86462201 151.19794312 -142.86462201 151.19794312 -142 148 C-140.1875 146.24609375 -140.1875 146.24609375 -138 144.4375 C-135.05040821 142.07789673 -135.05040821 142.07789673 -133 139 C-132.34 139 -131.68 139 -131 139 C-131 138.01 -131 137.02 -131 136 C-129.53125 134.4921875 -129.53125 134.4921875 -127.5 132.875 C-123.53024215 129.55867132 -120.18127126 125.95333121 -116.796875 122.05078125 C-114.63808859 119.58694893 -112.31612035 117.31612035 -110 115 C-105.82173128 110.45535324 -101.70433177 105.86611096 -97.75 101.125 C-96.01747091 99.07180944 -94.51940531 97.62238988 -92.375 95.9375 C-89.56297732 93.6434815 -87.98543236 91.01238014 -86 88 C-85.34 88 -84.68 88 -84 88 C-84 87.34 -84 86.68 -84 86 C-82.609375 84.6328125 -82.609375 84.6328125 -80.75 83.125 C-78.62394339 81.36831888 -76.64150963 79.64150963 -74.6875 77.6875 C-73 76 -73 76 -71 75 C-70.566875 74.278125 -70.13375 73.55625 -69.6875 72.8125 C-66.43956757 67.39927929 -62.56597292 63.55127799 -57.76171875 59.5703125 C-55.44413238 57.50452598 -53.50661754 55.21674413 -51.5546875 52.80859375 C-48.60285913 49.37468285 -45.34643254 46.27689518 -41.95703125 43.28125 C-41.18262695 42.59482422 -41.18262695 42.59482422 -40.39257812 41.89453125 C-39.33258924 40.95901572 -38.26739014 40.02937311 -37.19726562 39.10546875 C-34.02575872 36.27305378 -32.35394942 34.0076903 -31 30 C-28.6875 27.5 -28.6875 27.5 -26 25 C-25.236875 24.236875 -24.47375 23.47375 -23.6875 22.6875 C-22.3571875 21.3571875 -22.3571875 21.3571875 -21 20 C-20.401875 19.39027344 -19.80375 18.78054688 -19.1875 18.15234375 C-15.20914689 14.1195991 -11.12670194 10.30262238 -6.83203125 6.609375 C-4.43948191 4.50760458 -2.21633026 2.28559058 0 0 Z " fill="#345167" transform="translate(1292,849)"/>
<path d="M0 0 C4.34920758 1.65734367 7.09139154 4.91149843 10.25 8.1875 C14.48186537 12.50466613 18.7571371 16.65557403 23.35546875 20.5859375 C26.45519171 23.25125748 29.33369299 25.73401667 31.25 29.375 C33.06050417 32.09075625 34.65356359 33.37833031 37.25 35.3125 C42.5738065 39.30101953 47.49462937 43.67063735 50.2734375 49.81640625 C52.49668006 53.91582408 55.39759588 56.68016502 58.75 59.875 C60.02520345 61.11928649 61.29866311 62.36536277 62.5703125 63.61328125 C63.17262695 64.20318848 63.77494141 64.7930957 64.39550781 65.40087891 C66.79018193 67.78753676 68.98754359 70.31264573 71.17578125 72.88671875 C78.0319886 80.82934868 85.31556654 88.37108802 92.7734375 95.74609375 C95.33385627 98.33795626 97.71915202 101.03975106 100.09375 103.80078125 C106.11279148 110.74488033 112.1278056 117.66933708 119.34375 123.40234375 C121 125 121 125 122.36425781 127.34570312 C123.97923479 129.96630457 125.65703155 131.896636 127.828125 134.06640625 C128.54484375 134.79923828 129.2615625 135.53207031 130 136.28710938 C131.50968929 137.81383509 133.02541264 139.33461582 134.546875 140.84960938 C135.2584375 141.58115234 135.97 142.31269531 136.703125 143.06640625 C137.35958008 143.72584229 138.01603516 144.38527832 138.69238281 145.06469727 C140 147 140 147 139.70605469 149.24584961 C139.47305664 149.82471924 139.24005859 150.40358887 139 151 C138.34 151 137.68 151 137 151 C136.773125 151.5775 136.54625 152.155 136.3125 152.75 C134.66961977 155.5663661 132.60466773 157.08077114 130 159 C130.98227577 156.80876943 131.74408691 155.22520352 133.5625 153.625 C135.74675819 151.15583857 135.8810991 149.26184798 136 146 C134.08453768 143.27332643 134.08453768 143.27332643 131.3125 140.9375 C127.87396476 137.78758277 124.85959352 134.68447627 122 131 C119.77262878 128.71830265 117.52107713 126.48514077 115.1875 124.3125 C114 123 114 123 114 121 C113.40832031 120.74476563 112.81664062 120.48953125 112.20703125 120.2265625 C109.77407542 118.87444191 108.46504943 117.50466543 106.6875 115.375 C106.08808594 114.66730469 105.48867187 113.95960938 104.87109375 113.23046875 C103.94490234 112.12638672 103.94490234 112.12638672 103 111 C101.75374226 109.5592544 100.50386764 108.12162768 99.25 106.6875 C98.69828125 106.05199219 98.1465625 105.41648437 97.578125 104.76171875 C96.02656254 102.97983499 96.02656254 102.97983499 94.296875 101.39453125 C93 100 93 100 93 98 C92.46375 97.80148437 91.9275 97.60296875 91.375 97.3984375 C87.94863626 95.38094043 85.62717135 92.57731632 83 89.625 C81.95906405 88.47069479 80.91741278 87.31703421 79.875 86.1640625 C79.38515625 85.61782227 78.8953125 85.07158203 78.390625 84.50878906 C77.18241179 83.19791167 75.90859997 81.94809141 74.625 80.7109375 C73 79 73 79 73 77 C71.515 76.505 71.515 76.505 70 76 C68.4921875 74.46875 68.4921875 74.46875 66.875 72.5 C64.23514952 69.37664007 61.49694307 66.47328499 58.5625 63.625 C54.60694527 59.73009262 51.18066295 55.58057268 47.765625 51.2109375 C45.67961261 48.59880695 43.42292318 46.30177702 41 44 C38.97368268 41.98198726 36.95584158 39.95567431 34.9375 37.9296875 C33.76057823 36.75751138 32.57523081 35.59361025 31.375 34.4453125 C30.21539443 33.33182761 29.10182553 32.17068962 28 31 C28 30.34 28 29.68 28 29 C27.01 29 26.02 29 25 29 C23.02695861 26.36927815 21.35994101 23.83986235 20.0625 20.8125 C18.57108149 18.26831548 16.54125099 17.42557983 14 16 C12.1875 14.4375 12.1875 14.4375 11 13 C11 12.34 11 11.68 11 11 C10.01 10.67 9.02 10.34 8 10 C6.2109375 8.22265625 6.2109375 8.22265625 4.375 6.0625 C3.76398438 5.35222656 3.15296875 4.64195312 2.5234375 3.91015625 C1 2 1 2 0 0 Z " fill="#35426E" transform="translate(1165,686)"/>
<path d="M0 0 C0.99193359 0.99386719 0.99193359 0.99386719 2.00390625 2.0078125 C4.25486848 4.25956705 6.5150315 6.50183944 8.77734375 8.7421875 C10.16411443 10.11973939 11.55083203 11.49734472 12.9375 12.875 C13.97293945 13.89787109 13.97293945 13.89787109 15.02929688 14.94140625 C18.79117876 18.68545931 22.35681412 22.47607415 25.68408203 26.61401367 C27.08918695 28.2552682 27.08918695 28.2552682 29.9375 29.4375 C33.58942534 31.30072722 35.36247896 33.50485267 37.94921875 36.625 C40.33550707 39.38854914 42.8971429 41.9438665 45.5 44.5 C49.23940622 48.1927346 52.82556501 51.95881271 56.2421875 55.953125 C58.37651348 58.43842903 60.56005345 60.87609644 62.75 63.3125 C63.48734375 64.13363281 64.2246875 64.95476562 64.984375 65.80078125 C66.87972831 67.93842879 66.87972831 67.93842879 68.640625 69.48046875 C70 71 70 71 70.8046875 73.29296875 C72.48568278 77.09992864 75.14503058 79.46735518 78.125 82.3125 C78.68832031 82.86228516 79.25164062 83.41207031 79.83203125 83.97851562 C81.21462058 85.32595438 82.60640916 86.66394273 84 88 C83.505 89.485 83.505 89.485 83 91 C82.67 90.01 82.34 89.02 82 88 C81.34 88 80.68 88 80 88 C80 87.34 80 86.68 80 86 C79.4225 85.773125 78.845 85.54625 78.25 85.3125 C75.40408619 83.65238361 74.00158079 81.60812043 72 79 C69.56916602 76.50683694 67.08852215 74.08398255 64.5625 71.6875 C62.48913086 69.5129909 60.76818897 67.41034455 59 65 C56.56962728 61.68923716 53.98473993 58.83550294 51 56 C48.94306635 54.04078291 46.96460737 52.05598446 45 50 C45 49.34 45 48.68 45 48 C44.443125 47.79375 43.88625 47.5875 43.3125 47.375 C40.69505181 45.81867946 39.16656151 43.88890547 37.29296875 41.51953125 C35.44669086 39.34973639 33.2580764 37.72326883 31 36 C29.1875 34.375 29.1875 34.375 28 33 C28 32.34 28 31.68 28 31 C27.34 31 26.68 31 26 31 C24.2734375 29.3203125 24.2734375 29.3203125 22.375 27.125 C21.74335937 26.40570312 21.11171875 25.68640625 20.4609375 24.9453125 C19 23 19 23 19 21 C18.01 20.67 17.02 20.34 16 20 C14.3515625 18.328125 14.3515625 18.328125 12.625 16.25 C9.87888789 13.01144163 7.04702524 9.96238565 4 7 C3.2575 6.071875 3.2575 6.071875 2.5 5.125 C0.94966088 3.69334522 0.94966088 3.69334522 -1.6875 4.3125 C-2.450625 4.539375 -3.21375 4.76625 -4 5 C-2.68 3.35 -1.36 1.7 0 0 Z " fill="#374C6C" transform="translate(1081,595)"/>
<path d="M0 0 C0 6.56731496 -7.83522511 11.87735281 -12.25537109 16.3190918 C-14.63160887 18.6937781 -17.01672111 21.0593376 -19.40527344 23.42163086 C-22.38248712 26.36830668 -25.34200843 29.33186815 -28.28125 32.31640625 C-34.47946726 38.59100999 -34.47946726 38.59100999 -37.625 41.0625 C-39.70131648 42.75633713 -41.21584889 44.34575861 -42.9375 46.375 C-46.42758563 50.45442027 -50.14730413 54.26475895 -53.9375 58.0625 C-54.79686157 58.9285083 -54.79686157 58.9285083 -55.67358398 59.81201172 C-58.61533036 62.74420292 -61.61256307 65.55958686 -64.76586914 68.26367188 C-68.7904679 71.77050866 -72.58614161 75.45694631 -76.34375 79.24609375 C-76.99831177 79.90207047 -77.65287354 80.55804718 -78.32727051 81.23390198 C-80.38723823 83.29940145 -82.44367366 85.36837595 -84.5 87.4375 C-85.9086205 88.85114434 -87.31747267 90.26455786 -88.7265625 91.67773438 C-92.15372133 95.11583149 -95.57772019 98.55704656 -99 102 C-99.66 101.67 -100.32 101.34 -101 101 C-67.67 67.67 -34.34 34.34 0 0 Z " fill="#DAEDE4" transform="translate(1397,979)"/>
<path d="M0 0 C0 0.99 0 1.98 0 3 C-0.66 3 -1.32 3 -2 3 C-2.26425781 3.58265625 -2.52851562 4.1653125 -2.80078125 4.765625 C-4.04782497 7.08910711 -5.42313151 8.79587105 -7.1875 10.75 C-7.81011719 11.44480469 -8.43273438 12.13960937 -9.07421875 12.85546875 C-9.70972656 13.56316406 -10.34523438 14.27085937 -11 15 C-12.16769061 16.35328382 -13.33437923 17.70743296 -14.5 19.0625 C-16.7031847 21.58881846 -18.96668389 23.98187151 -21.375 26.3125 C-24.26390962 29.14350274 -26.78759516 32.15304087 -29.3125 35.3125 C-35.20620042 42.62673334 -41.63210362 49.17422146 -49 55 C-50.68873879 56.64429829 -52.35305515 58.31384218 -54 60 C-54.52464844 60.50273438 -55.04929687 61.00546875 -55.58984375 61.5234375 C-59.84396719 65.63286287 -63.49569886 70.04819254 -67.14453125 74.69921875 C-69.76006252 77.94247753 -72.63244132 80.73374196 -75.6875 83.5625 C-77.2141682 85.23456517 -78.07757479 86.94228223 -79 89 C-79.66 87.68 -80.32 86.36 -81 85 C-80.278125 84.46375 -79.55625 83.9275 -78.8125 83.375 C-75.79145155 80.82389242 -73.49754442 78.05949191 -71 75 C-69.3347404 73.33192746 -67.66787835 71.66545411 -66 70 C-64.1450382 68.0195673 -62.32195676 66.01078701 -60.5 64 C-57.08790156 60.23426671 -53.59440972 56.59440972 -50 53 C-48.81923068 51.67913941 -47.65121139 50.34670012 -46.5 49 C-43.78512643 45.86294307 -40.93401409 42.93401409 -38 40 C-37.0563796 38.88012867 -36.11932129 37.75470807 -35.1875 36.625 C-32.31629304 33.20048753 -29.09517514 30.3975904 -25.63671875 27.578125 C-23.74042264 25.99366534 -23.74042264 25.99366534 -23 23 C-22.34 23 -21.68 23 -21 23 C-20.73445313 22.41863281 -20.46890625 21.83726562 -20.1953125 21.23828125 C-16.83222034 14.94072632 -11.17721739 10.10510971 -5.80078125 5.54296875 C-3.7600079 3.79436686 -1.86078709 1.93831989 0 0 Z " fill="#335D60" transform="translate(1163,987)"/>
<path d="M0 0 C0.495 1.485 0.495 1.485 1 3 C-22 26 -22 26 -24.39453125 28.38671875 C-26.1419579 30.13938506 -27.87887279 31.90259049 -29.60546875 33.67578125 C-30.45753906 34.54589844 -31.30960938 35.41601562 -32.1875 36.3125 C-33.04730469 37.19550781 -33.90710938 38.07851563 -34.79296875 38.98828125 C-37 41 -37 41 -39 41 C-39.23460937 41.56074219 -39.46921875 42.12148438 -39.7109375 42.69921875 C-41.31389244 45.56025044 -43.2867323 47.514048 -45.625 49.8125 C-46.44226563 50.62332031 -47.25953125 51.43414063 -48.1015625 52.26953125 C-50.29998913 54.3405558 -52.51877568 56.32695025 -54.8046875 58.296875 C-59.23876146 62.14828966 -63.37355416 66.26138397 -67.5 70.4375 C-68.22703125 71.16904297 -68.9540625 71.90058594 -69.703125 72.65429688 C-71.47109499 74.43389824 -73.23666378 76.21580918 -75 78 C-74.01 81.465 -74.01 81.465 -73 85 C-74.65 83.68 -76.3 82.36 -78 81 C-77.41559249 77.62836963 -76.36748427 75.99495996 -73.95652771 73.59576416 C-73.30726318 72.94237564 -72.65799866 72.28898712 -71.98905945 71.61579895 C-71.27264786 70.91017319 -70.55623627 70.20454742 -69.81811523 69.47753906 C-69.06694427 68.72593002 -68.31577332 67.97432098 -67.5418396 67.19993591 C-65.05446839 64.71465655 -62.5566357 62.24017481 -60.05859375 59.765625 C-58.33301148 58.04563725 -56.60808989 56.32498643 -54.88380432 54.60369873 C-50.34147827 50.07283268 -45.79021534 45.55104734 -41.23706055 41.03106689 C-36.59338583 36.41806789 -31.95818117 31.7965756 -27.32226562 27.17578125 C-18.22313482 18.10883503 -9.11482877 9.0511638 0 0 Z " fill="#3F3574" transform="translate(920,755)"/>
<path d="M0 0 C0 3 0 3 -2 5.125 C-2.44988281 5.54394531 -2.89976563 5.96289062 -3.36328125 6.39453125 C-6.17807114 9.15557813 -8.67275437 12.20917481 -11.23046875 15.20703125 C-11.81441406 15.79871094 -12.39835937 16.39039063 -13 17 C-13.66 17 -14.32 17 -15 17 C-15.2475 17.61875 -15.495 18.2375 -15.75 18.875 C-17.23740369 21.40358627 -18.43678009 21.71839004 -21 23 C-21.2784375 23.57234375 -21.556875 24.1446875 -21.84375 24.734375 C-23.33650712 27.65937207 -25.30489718 29.81258063 -27.5 32.25 C-28.69109375 33.58804688 -28.69109375 33.58804688 -29.90625 34.953125 C-32 37 -32 37 -34 37 C-34.2784375 38.051875 -34.2784375 38.051875 -34.5625 39.125 C-36.25198264 42.50396527 -38.18235791 43.99881354 -41.07421875 46.33984375 C-45.15809841 49.86042966 -48.46317967 54.17327239 -51.92578125 58.2890625 C-52.54839844 59.01867187 -53.17101563 59.74828125 -53.8125 60.5 C-54.37582031 61.1703125 -54.93914062 61.840625 -55.51953125 62.53125 C-57 64 -57 64 -59 64 C-59.25523438 64.59296875 -59.51046875 65.1859375 -59.7734375 65.796875 C-61.11816498 68.21224538 -62.49214367 69.51211706 -64.625 71.25 C-65.57246094 72.03117188 -65.57246094 72.03117188 -66.5390625 72.828125 C-67.02117187 73.21484375 -67.50328125 73.6015625 -68 74 C-68.33 73.34 -68.66 72.68 -69 72 C-68.43410156 71.51789063 -67.86820313 71.03578125 -67.28515625 70.5390625 C-66.55167969 69.90742187 -65.81820313 69.27578125 -65.0625 68.625 C-64.33160156 67.99851562 -63.60070313 67.37203125 -62.84765625 66.7265625 C-60.91619094 65.12252286 -60.91619094 65.12252286 -60 63 C-59.34 63 -58.68 63 -58 63 C-58 62.01 -58 61.02 -58 60 C-56.53125 58.4921875 -56.53125 58.4921875 -54.5 56.875 C-50.53024215 53.55867132 -47.18127126 49.95333121 -43.796875 46.05078125 C-41.63808859 43.58694893 -39.31612035 41.31612035 -37 39 C-32.82173128 34.45535324 -28.70433177 29.86611096 -24.75 25.125 C-23.01747091 23.07180944 -21.51940531 21.62238988 -19.375 19.9375 C-16.56297732 17.6434815 -14.98543236 15.01238014 -13 12 C-12.34 12 -11.68 12 -11 12 C-11 11.34 -11 10.68 -11 10 C-9.609375 8.6328125 -9.609375 8.6328125 -7.75 7.125 C-5.02194172 4.8672966 -2.45763077 2.555936 0 0 Z " fill="#353D71" transform="translate(1219,925)"/>
<path d="M0 0 C4.34920758 1.65734367 7.09139154 4.91149843 10.25 8.1875 C14.48186537 12.50466613 18.7571371 16.65557403 23.35546875 20.5859375 C26.45519171 23.25125748 29.33369299 25.73401667 31.25 29.375 C33.51687649 32.77531473 36.37903562 34.66533498 39.63671875 37.0859375 C43.22616515 39.99309243 46.10583203 43.41718757 49 47 C48.505 47.99 48.505 47.99 48 49 C47.14277344 48.11957031 46.28554687 47.23914063 45.40234375 46.33203125 C44.247671 45.15858334 43.09270748 43.9854215 41.9375 42.8125 C41.37611328 42.23435547 40.81472656 41.65621094 40.23632812 41.06054688 C37.33622528 38.1273 34.47282507 35.53625036 31.06640625 33.19921875 C30.05449219 32.47347656 29.04257813 31.74773438 28 31 C28 30.34 28 29.68 28 29 C27.01 29 26.02 29 25 29 C23.02695861 26.36927815 21.35994101 23.83986235 20.0625 20.8125 C18.57108149 18.26831548 16.54125099 17.42557983 14 16 C12.1875 14.4375 12.1875 14.4375 11 13 C11 12.34 11 11.68 11 11 C10.01 10.67 9.02 10.34 8 10 C6.2109375 8.22265625 6.2109375 8.22265625 4.375 6.0625 C3.76398438 5.35222656 3.15296875 4.64195312 2.5234375 3.91015625 C1 2 1 2 0 0 Z " fill="#354D68" transform="translate(1165,686)"/>
<path d="M0 0 C0.495 0.99 0.495 0.99 1 2 C-2.16336172 5.88641583 -5.40414808 9.49877576 -9 13 C-9.556875 13.598125 -10.11375 14.19625 -10.6875 14.8125 C-12 16 -12 16 -14 16 C-14.226875 16.556875 -14.45375 17.11375 -14.6875 17.6875 C-16.38143236 20.67204749 -18.51614698 22.62654045 -21 25 C-25.66252347 29.49014823 -25.66252347 29.49014823 -29.8125 34.4375 C-30.204375 34.953125 -30.59625 35.46875 -31 36 C-31.66 36 -32.32 36 -33 36 C-33.185625 36.70125 -33.37125 37.4025 -33.5625 38.125 C-35.25082684 41.50165368 -37.17379021 42.99648465 -40.0703125 45.328125 C-42.1192242 47.10329546 -43.81271861 48.99386956 -45.5625 51.0625 C-48.45902319 54.47672756 -51.47360212 57.24768946 -55 60 C-53.55774399 56.6619951 -51.74778144 54.56156534 -49.125 52.0625 C-46.16583832 49.18331567 -43.54896007 46.25212147 -41 43 C-39.33333333 41.33333333 -37.66666667 39.66666667 -36 38 C-31.82043334 33.45665624 -27.70426773 28.86603418 -23.75 24.125 C-21.40873309 21.36449797 -18.87502014 19.21155395 -16 17 C-11.96192608 13.18020034 -8.37340812 9.01701564 -4.76953125 4.79296875 C-4.18558594 4.20128906 -3.60164063 3.60960937 -3 3 C-2.34 3 -1.68 3 -1 3 C-0.67 2.01 -0.34 1.02 0 0 Z " fill="#345D61" transform="translate(1219,927)"/>
<path d="M0 0 C0.66 0.33 1.32 0.66 2 1 C0.71580959 2.67243402 -0.57757185 4.33781447 -1.875 6 C-2.59429688 6.928125 -3.31359375 7.85625 -4.0546875 8.8125 C-4.69664063 9.534375 -5.33859375 10.25625 -6 11 C-6.66 11 -7.32 11 -8 11 C-8.0928125 11.8353125 -8.0928125 11.8353125 -8.1875 12.6875 C-9.35165517 16.00086472 -11.39458444 17.70475296 -14 20 C-14.99 20.33 -15.98 20.66 -17 21 C-17.70809175 22.31180345 -18.36933502 23.64926542 -19 25 C-20.06262752 26.34635175 -21.17001248 27.65821796 -22.3125 28.9375 C-22.93640625 29.63617187 -23.5603125 30.33484375 -24.203125 31.0546875 C-26.40349692 33.43682928 -28.70710381 35.70710381 -31 38 C-31.9436204 39.11987133 -32.88067871 40.24529193 -33.8125 41.375 C-37.16428168 45.35688163 -41.01295798 48.67071872 -45 52 C-45 47.39324624 -42.11719511 45.19222606 -39 42 C-37.805904 40.96254885 -36.5977339 39.94103971 -35.375 38.9375 C-33.03897269 37.0137128 -31.77071975 35.65238156 -30.0625 33.0625 C-28.22061112 30.32757408 -26.79971197 28.86885635 -24.3125 26.8125 C-19.84639067 23.09213876 -16.42653641 18.74724138 -12.8828125 14.16015625 C-12.26148438 13.44730469 -11.64015625 12.73445312 -11 12 C-10.34 12 -9.68 12 -9 12 C-9 11.34 -9 10.68 -9 10 C-8.34 10 -7.68 10 -7 10 C-6.773125 9.46375 -6.54625 8.9275 -6.3125 8.375 C-4.56617944 5.21499137 -2.3597151 2.7323017 0 0 Z " fill="#343C71" transform="translate(1148,999)"/>
<path d="M0 0 C0.495 0.99 0.495 0.99 1 2 C-2.72133078 6.52227946 -6.59822418 10.62993716 -11 14.5 C-14.74279528 17.7961475 -18.05022589 21.20344363 -21.26953125 25.00390625 C-23.21295119 27.24563896 -25.23714139 29.37992989 -27.3125 31.5 C-27.96863281 32.1703125 -28.62476563 32.840625 -29.30078125 33.53125 C-31 35 -31 35 -33 35 C-33.33 35.99 -33.66 36.98 -34 38 C-36.0625 38.6875 -36.0625 38.6875 -38 39 C-33.69372744 33.85170256 -29.17688069 29.04247928 -24.4140625 24.31640625 C-23.71227875 23.61603745 -23.010495 22.91566864 -22.28744507 22.19407654 C-20.06898864 19.98116973 -17.84706185 17.77178584 -15.625 15.5625 C-14.11044534 14.05296686 -12.59612015 12.54320343 -11.08203125 11.03320312 C-7.39066901 7.35280298 -3.69645931 3.67528043 0 0 Z " fill="#3E3471" transform="translate(959,716)"/>
<path d="M0 0 C0 3 0 3 -1.50390625 4.76171875 C-2.18324219 5.39722656 -2.86257813 6.03273438 -3.5625 6.6875 C-6.26417468 9.28544546 -8.83015608 11.88801176 -11.25 14.75 C-14.41900326 18.41552911 -17.73508276 21.91484681 -21.125 25.375 C-21.62805664 25.89932617 -22.13111328 26.42365234 -22.64941406 26.96386719 C-25.55925136 29.90052326 -28.0273005 31.79218294 -32 33 C-28.10023279 28.33125463 -24.04785356 23.90872191 -19.7265625 19.62890625 C-19.15795502 19.06171371 -18.58934753 18.49452118 -18.00350952 17.91014099 C-16.21303764 16.12520087 -14.41909516 14.34379744 -12.625 12.5625 C-11.39950677 11.34203061 -10.17424428 10.12132947 -8.94921875 8.90039062 C-5.96880226 5.93091244 -2.98527106 2.96459743 0 0 Z " fill="#D8EDE2" transform="translate(1539,838)"/>
<path d="M0 0 C0 4.94779396 -3.66390929 7.58576662 -7 11 C-9.33171544 13.15362705 -11.70636001 15.25151676 -14.08984375 17.34765625 C-19.93789046 22.67762097 -25.44237813 28.37030523 -31 34 C-31.99 33.67 -32.98 33.34 -34 33 C-33.57912109 32.6505835 -33.15824219 32.30116699 -32.72460938 31.94116211 C-25.59890181 25.87450636 -19.08797172 19.19814547 -12.5 12.5625 C-11.28408886 11.3415631 -10.06794484 10.12085808 -8.8515625 8.90039062 C-5.89835034 5.93625987 -2.94830602 2.96901042 0 0 Z " fill="#3F3573" transform="translate(1032,644)"/>
<path d="M0 0 C0.99193359 0.99386719 0.99193359 0.99386719 2.00390625 2.0078125 C4.25486848 4.25956705 6.5150315 6.50183944 8.77734375 8.7421875 C10.16411443 10.11973939 11.55083203 11.49734472 12.9375 12.875 C13.97293945 13.89787109 13.97293945 13.89787109 15.02929688 14.94140625 C18.80996617 18.70415768 22.40195829 22.52293788 25.77563477 26.65673828 C26.98010977 28.13995987 26.98010977 28.13995987 29 29 C29.625 31.0625 29.625 31.0625 30 33 C29.34 33 28.68 33 28 33 C28 32.34 28 31.68 28 31 C27.34 31 26.68 31 26 31 C24.2734375 29.3203125 24.2734375 29.3203125 22.375 27.125 C21.74335937 26.40570312 21.11171875 25.68640625 20.4609375 24.9453125 C19 23 19 23 19 21 C18.01 20.67 17.02 20.34 16 20 C14.3515625 18.328125 14.3515625 18.328125 12.625 16.25 C9.87888789 13.01144163 7.04702524 9.96238565 4 7 C3.2575 6.071875 3.2575 6.071875 2.5 5.125 C0.94966088 3.69334522 0.94966088 3.69334522 -1.6875 4.3125 C-2.450625 4.539375 -3.21375 4.76625 -4 5 C-2.68 3.35 -1.36 1.7 0 0 Z " fill="#393E6F" transform="translate(1081,595)"/>
<path d="M0 0 C0.66 0.33 1.32 0.66 2 1 C-1.50074982 5.17443363 -4.97950843 9.3145494 -9 13 C-9.66 13 -10.32 13 -11 13 C-11.2475 13.5775 -11.495 14.155 -11.75 14.75 C-13.18299988 17.32939979 -14.78424676 19.06121592 -17 21 C-17.66 21 -18.32 21 -19 21 C-19.26941406 21.58394531 -19.53882813 22.16789063 -19.81640625 22.76953125 C-21.00310231 25.00584626 -22.29797606 26.76429253 -23.9375 28.6875 C-24.44152344 29.28949219 -24.94554687 29.89148438 -25.46484375 30.51171875 C-27 32 -27 32 -30 33 C-28.63757574 29.93286756 -27.10300295 27.88159707 -24.6875 25.5625 C-24.06617188 24.95792969 -23.44484375 24.35335937 -22.8046875 23.73046875 C-22.20914062 23.15941406 -21.61359375 22.58835937 -21 22 C-18.51368746 19.57150869 -16.17105142 17.21381427 -14 14.5 C-11.8319948 11.7899935 -9.48335462 9.42278499 -7 7 C-6.113125 6.113125 -5.22625 5.22625 -4.3125 4.3125 C-2.875 2.875 -1.4375 1.4375 0 0 Z " fill="#355F62" transform="translate(1250,894)"/>
<path d="M0 0 C0.43828125 0.59167969 0.8765625 1.18335938 1.328125 1.79296875 C6.83542319 9.06311707 13.30961937 15.38506201 19.84472656 21.7199707 C20.47991211 22.34347412 21.11509766 22.96697754 21.76953125 23.609375 C22.34292236 24.16592773 22.91631348 24.72248047 23.50708008 25.29589844 C25.0803015 27.09166059 26.030337 28.82752775 27 31 C24.02705516 29.67547632 22.07847136 28.28248522 19.8984375 25.875 C19.33020264 25.2552832 18.76196777 24.63556641 18.17651367 23.99707031 C17.58201416 23.33803711 16.98751465 22.67900391 16.375 22 C11.32592116 16.4789147 6.19357792 11.13348094 0.79296875 5.953125 C-1 4 -1 4 -2 1 C-1.34 0.67 -0.68 0.34 0 0 Z " fill="#386260" transform="translate(1083,593)"/>
<path d="M0 0 C7.57400209 3.24844333 13.03480403 10.93783936 18.29296875 17.0703125 C21.05221581 20.18946136 24.01587975 23.09751222 27 26 C26.67 26.99 26.34 27.98 26 29 C25.67 28.01 25.34 27.02 25 26 C24.34 26 23.68 26 23 26 C23 25.34 23 24.68 23 24 C22.4225 23.773125 21.845 23.54625 21.25 23.3125 C18.40408619 21.65238361 17.00158079 19.60812043 15 17 C12.54862975 14.4857741 10.0457436 12.04345642 7.5 9.625 C4.61807463 6.59897836 2.36299018 3.44321427 0 0 Z " fill="#363E6F" transform="translate(1138,657)"/>
<path d="M0 0 C0 4.25854609 -2.46164097 6.07170951 -5.25 9 C-5.78270508 9.56871826 -6.31541016 10.13743652 -6.86425781 10.72338867 C-12.29958351 16.45245122 -18.08839688 21.76969866 -24 27 C-24.66 26.67 -25.32 26.34 -26 26 C-17.33333333 17.33333333 -8.66666667 8.66666667 0 0 Z " fill="#3F3574" transform="translate(1073,603)"/>
<path d="M0 0 C3.13608345 1.36145308 4.9145345 2.79511789 7.0625 5.4375 C10.04839313 8.97562283 13.20356874 12.24878728 16.5 15.5 C26.60745023 25.53774367 26.60745023 25.53774367 29 29 C29 29.99 29 30.98 29 32 C24.71708977 27.8044961 20.46033191 23.62240384 16.5625 19.0625 C11.60134974 13.28804642 6.35421416 7.23614277 0 3 C0 2.01 0 1.02 0 0 Z " fill="#386561" transform="translate(1110,624)"/>
<path d="M0 0 C0 3.58120534 -0.98606488 4.35181435 -3.40411377 6.82095337 C-3.89466248 7.30542938 -4.38521118 7.7899054 -4.890625 8.2890625 C-5.64215851 9.04490128 -5.64215851 9.04490128 -6.40887451 9.81600952 C-7.47120566 10.88038291 -8.53733775 11.94097407 -9.60693359 12.99804688 C-11.2402386 14.61533433 -12.85698797 16.24792767 -14.47265625 17.8828125 C-15.50685228 18.91502547 -16.54197887 19.94630709 -17.578125 20.9765625 C-18.30180267 21.70934921 -18.30180267 21.70934921 -19.0401001 22.4569397 C-21.55504046 24.92019868 -23.42935178 26.60011259 -27 27 C-18 18 -9 9 0 0 Z " fill="#EEFEF6" transform="translate(1428,949)"/>
<path d="M0 0 C0 3 0 3 0 3 Z M-4 4 C-3.34 4.33 -2.68 4.66 -2 5 C-5.3 8.63 -8.6 12.26 -12 16 C-12.33 14.68 -12.66 13.36 -13 12 C-11.63671875 10.11328125 -11.63671875 10.11328125 -9.6875 8.3125 C-9.05199219 7.71050781 -8.41648437 7.10851563 -7.76171875 6.48828125 C-6 5 -6 5 -4 4 Z M-15 16 C-14.34 16.33 -13.68 16.66 -13 17 C-14.32 17.99 -15.64 18.98 -17 20 C-16.34 18.68 -15.68 17.36 -15 16 Z " fill="#306957" transform="translate(1136,1017)"/>
<path d="M0 0 C0.99 0.33 1.98 0.66 3 1 C-1.95 5.95 -6.9 10.9 -12 16 C-12.33 15.01 -12.66 14.02 -13 13 C-8.71 8.71 -4.42 4.42 0 0 Z " fill="#E6F3ED" transform="translate(1353,1023)"/>
<path d="M0 0 C0.66 0.33 1.32 0.66 2 1 C0.77801556 2.58888299 -0.45294475 4.17086464 -1.6875 5.75 C-2.37199219 6.63171875 -3.05648438 7.5134375 -3.76171875 8.421875 C-5.98989502 10.98836075 -8.32981545 12.91255931 -11 15 C-12.49701545 16.64315155 -12.49701545 16.64315155 -13.6875 18.25 C-14.450625 19.1575 -15.21375 20.065 -16 21 C-16.66 21 -17.32 21 -18 21 C-18.33 21.66 -18.66 22.32 -19 23 C-19.33 22.01 -19.66 21.02 -20 20 C-19.2575 19.60683594 -18.515 19.21367188 -17.75 18.80859375 C-14.76687794 16.84668251 -13.126104 14.9130225 -11 12.0625 C-8.28549163 8.43403418 -5.55260312 5.79884357 -2 3 C-1.34 2.01 -0.68 1.02 0 0 Z " fill="#343B6F" transform="translate(1100,1051)"/>
<path d="M0 0 C0.99 0.33 1.98 0.66 3 1 C-2.61 6.61 -8.22 12.22 -14 18 C-14.33 17.01 -14.66 16.02 -15 15 C-14.34 15 -13.68 15 -13 15 C-13 14.34 -13 13.68 -13 13 C-12.34 13 -11.68 13 -11 13 C-10.34 11.68 -9.68 10.36 -9 9 C-8.34 9 -7.68 9 -7 9 C-6.67 8.01 -6.34 7.02 -6 6 C-5.34 6 -4.68 6 -4 6 C-3.34 4.68 -2.68 3.36 -2 2 C-1.34 2 -0.68 2 0 2 C0 1.34 0 0.68 0 0 Z " fill="#231F3C" transform="translate(1055,618)"/>
<path d="M0 0 C0 3.86251359 -1.1097764 4.58286316 -3.6875 7.375 C-4.4196875 8.17035156 -5.151875 8.96570313 -5.90625 9.78515625 C-9.74480494 13.84571716 -13.57051057 17.5829653 -18 21 C-18 18 -18 18 -15.8125 15.625 C-14.884375 14.75875 -13.95625 13.8925 -13 13 C-11.8553125 11.8553125 -11.8553125 11.8553125 -10.6875 10.6875 C-7.125 7.125 -3.5625 3.5625 0 0 Z " fill="#343E6F" transform="translate(1279,861)"/>
<path d="M0 0 C3.01015294 1.3510265 5.11967466 2.86335687 7.453125 5.1875 C8.071875 5.80367187 8.690625 6.41984375 9.328125 7.0546875 C9.96234375 7.69664062 10.5965625 8.33859375 11.25 9 C11.8996875 9.64195312 12.549375 10.28390625 13.21875 10.9453125 C13.83234375 11.56148437 14.4459375 12.17765625 15.078125 12.8125 C15.63918945 13.37582031 16.20025391 13.93914063 16.77832031 14.51953125 C18 16 18 16 18 18 C15.13302508 16.71480435 13.02392288 15.42870746 11 13 C11 12.34 11 11.68 11 11 C10.01 10.67 9.02 10.34 8 10 C6.2109375 8.22265625 6.2109375 8.22265625 4.375 6.0625 C3.76398438 5.35222656 3.15296875 4.64195312 2.5234375 3.91015625 C1 2 1 2 0 0 Z " fill="#364070" transform="translate(1165,686)"/>
<path d="M0 0 C2 0 2 0 4.26171875 2.10546875 C7.14110338 5.14915492 9.99248027 8.21386684 12.8125 11.3125 C13.56563477 12.13717773 13.56563477 12.13717773 14.33398438 12.97851562 C15.55703968 14.31805239 16.77867008 15.65888992 18 17 C17.67 17.66 17.34 18.32 17 19 C16.5560791 18.55084229 16.1121582 18.10168457 15.65478516 17.63891602 C13.64746397 15.61084393 11.63629001 13.58663584 9.625 11.5625 C8.92632813 10.85544922 8.22765625 10.14839844 7.5078125 9.41992188 C6.8375 8.74638672 6.1671875 8.07285156 5.4765625 7.37890625 C4.549646 6.44413452 4.549646 6.44413452 3.60400391 5.49047852 C2.05339933 3.90951849 2.05339933 3.90951849 0 3 C0 2.01 0 1.02 0 0 Z " fill="#366361" transform="translate(1165,683)"/>
<path d="M0 0 C0.99 0.33 1.98 0.66 3 1 C1.78070272 2.30098717 0.54907548 3.59042437 -0.6875 4.875 C-1.37199219 5.59429688 -2.05648438 6.31359375 -2.76171875 7.0546875 C-5.09591291 9.08335887 -7.08467634 10.02992733 -10 11 C-6.79239749 7.19364503 -3.59253891 3.45436433 0 0 Z " fill="#E7F5EE" transform="translate(1517,860)"/>
<path d="M0 0 C0.99 0.33 1.98 0.66 3 1 C-0.63 4.63 -4.26 8.26 -8 12 C-8.33 11.01 -8.66 10.02 -9 9 C-8.38125 8.7525 -7.7625 8.505 -7.125 8.25 C-4.5927804 6.76045906 -4.19281342 5.62418952 -3 3 C-1.375 1.25 -1.375 1.25 0 0 Z " fill="#1D1B31" transform="translate(929,743)"/>
<path d="M0 0 C5.63370702 3.67915561 9.75139368 7.7957801 14 13 C13.67 13.66 13.34 14.32 13 15 C10.82722286 12.88094537 8.66173092 10.75527122 6.5 8.625 C5.87996094 8.02171875 5.25992187 7.4184375 4.62109375 6.796875 C4.03457031 6.21679688 3.44804688 5.63671875 2.84375 5.0390625 C2.29912109 4.50490723 1.75449219 3.97075195 1.19335938 3.42041016 C0 2 0 2 0 0 Z " fill="#366962" transform="translate(1200,720)"/>
<path d="M0 0 C0.33 0.99 0.66 1.98 1 3 C-2.3 5.97 -5.6 8.94 -9 12 C-9.66 11.67 -10.32 11.34 -11 11 C-7.37 7.37 -3.74 3.74 0 0 Z " fill="#3A3169" transform="translate(989,686)"/>
<path d="M0 0 C0.66 0.33 1.32 0.66 2 1 C0.59290434 2.48827426 -0.82606201 3.96533185 -2.25 5.4375 C-3.43335938 6.67306641 -3.43335938 6.67306641 -4.640625 7.93359375 C-6.90734717 9.91885207 -8.0671937 10.6300359 -11 11 C-7.33333333 7.33333333 -3.66666667 3.66666667 0 0 Z " fill="#E1F3EA" transform="translate(1412,965)"/>
<path d="M0 0 C0.66 0.66 1.32 1.32 2 2 C-1.465 4.97 -1.465 4.97 -5 8 C-5.66 7.67 -6.32 7.34 -7 7 C-4.69 4.69 -2.38 2.38 0 0 Z " fill="#3B326B" transform="translate(977,698)"/>
<path d="M0 0 C0.99 0.33 1.98 0.66 3 1 C0.69 3.31 -1.62 5.62 -4 8 C-4.33 7.01 -4.66 6.02 -5 5 C-4.360625 4.731875 -3.72125 4.46375 -3.0625 4.1875 C-0.66868314 3.11332248 -0.66868314 3.11332248 0 0 Z " fill="#211D39" transform="translate(1009,664)"/>
<path d="M0 0 C1.14926266 0.95421808 2.29430541 1.91352045 3.4375 2.875 C4.07558594 3.40867187 4.71367188 3.94234375 5.37109375 4.4921875 C7 6 7 6 8 8 C4.82461668 7.65978036 3.97723135 6.97533396 1.75 4.5625 C0 2 0 2 0 0 Z " fill="#221E3C" transform="translate(1055,1047)"/>
<path d="M0 0 C0.99 0.33 1.98 0.66 3 1 C-0.465 3.97 -0.465 3.97 -4 7 C-3.04065919 3.16263678 -2.76390737 2.40339772 0 0 Z " fill="#221E3A" transform="translate(1037,636)"/>
<path d="M0 0 C0.66 0.33 1.32 0.66 2 1 C1.319375 1.61875 1.319375 1.61875 0.625 2.25 C-1.05950374 4.06408095 -1.99265971 5.75285627 -3 8 C-3.66 6.68 -4.32 5.36 -5 4 C-3.35 2.68 -1.7 1.36 0 0 Z " fill="#3E6667" transform="translate(1087,1068)"/>
</svg>
